<svg xmlns="http://www.w3.org/2000/svg" viewBox="0 0 804.1 684" enable-background="new 0 0 804.1 684"><style type="text/css">.st0{fill:none;} .st1{fill:#F7BC60;} .st2{fill:#FFFFFF;} .st3{fill:#EFEFF0;}</style><pattern x="-101.9" y="881.9" width="69" height="69" patternUnits="userSpaceOnUse" id="Polka_Dot_Pattern" viewBox="2.1 -70.9 69 69" overflow="visible"><path class="st0" d="M2.1-70.9h69v69h-69z"/><path class="st1" d="M2.1-70.9h69v69h-69z"/><path class="st2" d="M61.8-71.7v.2c-.1.1-.1.1-.2.1-.1.1-.1.3-.1.4-.2.1 0 .2 0 .3v.2c0 .1 0 .3.1.4.1.2.3.4.4.5.2.1.4.6.6.6.2 0 .4-.1.5-.1.2 0 .4 0 .6-.1.2-.1.1-.3.3-.5l.4-.1c.2-.1.3-.3.4-.5v-.2l.1-.3-.1-.2v-.3c0-.2 0-.4-.1-.5-.4-.7-1.2-.9-2-.8-.2 0-.3.1-.4.2-.2.1-.1.2-.3.2-.1 0-.2.1-.2.2v.3M54.1-71.7v.2c-.1.1-.1.1-.2.1-.1.1-.1.3-.1.4-.2.1 0 .2 0 .3v.2c0 .1 0 .3.1.4.1.2.3.4.4.5.2.1.4.6.6.6.2 0 .4-.1.5-.1.2 0 .4 0 .6-.1.2-.1.1-.3.3-.5l.4-.1c.2-.1.3-.3.4-.5v-.2l.1-.3-.1-.2v-.3c0-.2 0-.4-.1-.5-.4-.7-1.2-.9-2-.8-.2 0-.3.1-.4.2-.2.1-.1.2-.3.2-.1 0-.2.1-.2.2v.3M46.4-71.7v.2c-.1.1-.1.1-.2.1-.1.1-.1.3-.1.4-.2.1 0 .2 0 .3v.2c0 .1 0 .3.1.4.1.2.3.4.4.5.2.1.4.6.6.6.2 0 .4-.1.5-.1.2 0 .4 0 .6-.1.2-.1.1-.3.3-.5l.4-.1c.2-.1.3-.3.4-.5v-.2l.1-.3-.1-.2v-.3c0-.2 0-.4-.1-.5-.4-.7-1.2-.9-2-.8-.2 0-.3.1-.4.2-.2.1-.1.2-.3.2-.1 0-.2.1-.2.2v.3M38.8-71.7v.2c-.1.1-.1.1-.2.1-.1.1-.1.3-.1.4-.2.1 0 .2 0 .3v.2c0 .1 0 .3.1.4.1.2.3.4.4.5.2.1.4.6.6.6.2 0 .4-.1.5-.1.2 0 .4 0 .6-.1.2-.1.1-.3.3-.5l.4-.1c.2-.1.3-.3.4-.5v-.2l.1-.3-.1-.2v-.3c0-.2 0-.4-.1-.5-.4-.7-1.2-.9-2-.8-.2 0-.3.1-.4.2-.2.1-.1.2-.3.2-.1 0-.2.1-.2.2v.3M31.1-71.7v.2c-.1.1-.1.1-.2.1-.1.1-.1.3-.1.4-.2.1 0 .2 0 .3v.2c0 .1 0 .3.1.4.1.2.3.4.4.5.2.1.4.6.6.6.2 0 .4-.1.5-.1.2 0 .4 0 .6-.1.2-.1.1-.3.3-.5l.4-.1c.2-.1.3-.3.4-.5v-.2l.1-.3-.1-.2v-.3c0-.2 0-.4-.1-.5-.4-.7-1.2-.9-2-.8-.2 0-.3.1-.4.2-.2.1-.1.2-.3.2-.1 0-.2.1-.2.2v.3M23.4-71.7v.2c-.1.1-.1.1-.2.1-.1.1-.1.3-.1.4-.2.1 0 .2 0 .3v.2c0 .1 0 .3.1.4.1.2.3.4.4.5.2.1.4.6.6.6.2 0 .4-.1.5-.1.2 0 .4 0 .6-.1.2-.1.1-.3.3-.5l.4-.1c.2-.1.3-.3.4-.5v-.2l.1-.3-.1-.2v-.3c0-.2 0-.4-.1-.5-.4-.7-1.2-.9-2-.8-.2 0-.3.1-.4.2-.2.1-.1.2-.3.2-.1 0-.2.1-.2.2v.3M15.8-71.7v.2c-.1.1-.1.1-.2.1-.1.1-.1.3-.1.4-.2.1 0 .2 0 .3v.2c0 .1 0 .3.1.4.1.2.3.4.4.5.2.1.4.6.6.6.2 0 .4-.1.5-.1.2 0 .4 0 .6-.1.2-.1.1-.3.3-.5l.4-.1c.2-.1.3-.3.4-.5v-.2l.1-.3-.1-.2v-.3c0-.2 0-.4-.1-.5-.4-.7-1.2-.9-2-.8-.2 0-.3.1-.4.2-.2.1-.1.2-.3.2-.1 0-.2.1-.2.2v.3M8.1-71.7v.2l-.2.2c-.1.1-.1.3-.1.4-.2.1 0 .2 0 .3v.2c0 .1 0 .3.1.4.1.2.3.4.4.5.2.1.4.6.6.6.2 0 .4-.1.5-.1.2 0 .4 0 .6-.1.2-.1.1-.3.3-.5l.4-.1c.2-.1.3-.3.4-.5v-.2l.1-.3-.1-.2v-.3c0-.2 0-.4-.1-.5-.4-.7-1.2-.9-2-.8-.2 0-.3.1-.4.2-.2.1-.1.2-.3.2-.1 0-.2.1-.2.2v.2M.4-71.7v.2c-.1.1-.1.1-.2.1-.1.1-.1.3-.1.4-.2.1 0 .2 0 .3v.2c0 .1 0 .3.1.4.1.2.3.4.4.5.2.2.4.6.6.7.2 0 .4-.1.5-.1.2 0 .4 0 .6-.1.2-.1.1-.3.3-.5l.4-.1c.2-.1.3-.3.4-.5v-.2l.1-.3-.1-.2v-.3c0-.2 0-.4-.1-.5-.4-.7-1.2-.9-2-.8-.2 0-.3.1-.4.2-.2.1-.1.2-.3.2-.1 0-.2.1-.2.2v.2M69.4-71.7v.2c-.1.1-.1.1-.2.1-.1.1-.1.3-.1.4-.2.1 0 .2 0 .3v.2c0 .1 0 .3.1.4.1.2.3.4.4.5.2.1.4.6.6.6.2 0 .4-.1.5-.1.2 0 .4 0 .6-.1.2-.1.1-.3.3-.5l.4-.1c.2-.1.3-.3.4-.5v-.2l.1-.3-.1-.2v-.3c0-.2 0-.4-.1-.5-.4-.7-1.2-.9-2-.8-.2 0-.3.1-.4.2-.2.1-.1.2-.3.2-.1 0-.2.1-.2.2v.3M.5-71.7v.2c-.1.1-.1.1-.2.1-.1.1-.1.3-.1.4-.2.1 0 .2 0 .3v.2c0 .1 0 .3.1.4.1.2.3.4.4.5.2.2.3.6.6.7.2 0 .4-.1.5-.1.2 0 .4 0 .6-.1.2-.1.1-.3.3-.5l.4-.1c.2-.1.3-.3.4-.5v-.2l.1-.3-.1-.2v-.3c0-.2 0-.4-.1-.5-.4-.7-1.2-.9-2-.8-.2 0-.3.1-.4.2-.2.1-.1.2-.3.2-.1 0-.2.1-.2.2v.2M69.4-64v.2c-.1.1-.1.1-.2.1-.1.1-.1.3-.1.4-.2.1 0 .2 0 .3v.2c0 .1 0 .3.1.4.1.2.3.4.4.5.2.1.4.6.6.6.2 0 .4-.1.5-.1.2 0 .4 0 .6-.1.2-.1.1-.3.3-.5l.4-.1c.2-.1.3-.3.4-.5v-.2l.1-.3-.1-.2v-.3c0-.2 0-.4-.1-.5-.4-.7-1.2-.9-2-.8-.2 0-.3.1-.4.2-.2.1-.1.2-.3.2-.1 0-.2.1-.2.2v.3M61.8-64v.2c-.1.1-.1.1-.2.1-.1.1-.1.3-.1.4-.2.1 0 .2 0 .3v.2c0 .1 0 .3.1.4.1.2.3.4.4.5.2.1.4.6.6.6.2 0 .4-.1.5-.1.2 0 .4 0 .6-.1.2-.1.1-.3.3-.5l.4-.1c.2-.1.3-.3.4-.5v-.2l.1-.3-.1-.2v-.3c0-.2 0-.4-.1-.5-.4-.7-1.2-.9-2-.8-.2 0-.3.1-.4.2-.2.1-.1.2-.3.2-.1 0-.2.1-.2.2v.3M54.1-64v.2c-.1.1-.1.1-.2.1-.1.1-.1.3-.1.4-.2.1 0 .2 0 .3v.2c0 .1 0 .3.1.4.1.2.3.4.4.5.2.1.4.6.6.6.2 0 .4-.1.5-.1.2 0 .4 0 .6-.1.2-.1.1-.3.3-.5l.4-.1c.2-.1.3-.3.4-.5v-.2l.1-.3-.1-.2v-.3c0-.2 0-.4-.1-.5-.4-.7-1.2-.9-2-.8-.2 0-.3.1-.4.2-.2.1-.1.2-.3.2-.1 0-.2.1-.2.2v.3M46.5-64v.2c-.1.1-.1.1-.2.1-.1.1-.1.3-.1.4-.2.1 0 .2 0 .3v.2c0 .1 0 .3.1.4.1.2.3.4.4.5.2.1.4.6.6.6.2 0 .4-.1.5-.1.2 0 .4 0 .6-.1.2-.1.1-.3.3-.5l.4-.1c.2-.1.3-.3.4-.5v-.2l.1-.3-.1-.2v-.3c0-.2 0-.4-.1-.5-.4-.7-1.2-.9-2-.8-.2 0-.3.1-.4.2-.2.1-.1.2-.3.2-.1 0-.2.1-.2.2v.3M38.8-64v.2c-.1.1-.1.1-.2.1-.1.1-.1.3-.1.4-.2.1 0 .2 0 .3v.2c0 .1 0 .3.1.4.1.2.3.4.4.5.2.1.4.6.6.6.2 0 .4-.1.5-.1.2 0 .4 0 .6-.1.2-.1.1-.3.3-.5l.4-.1c.2-.1.3-.3.4-.5v-.2l.1-.3-.1-.2v-.3c0-.2 0-.4-.1-.5-.4-.7-1.2-.9-2-.8-.2 0-.3.1-.4.2-.2.1-.1.2-.3.2-.1 0-.2.1-.2.2v.3M31.1-64v.2c-.1.1-.1.1-.2.1-.1.1-.1.3-.1.4-.2.1 0 .2 0 .3v.2c0 .1 0 .3.1.4.1.2.3.4.4.5.2.1.4.6.6.6.2 0 .4-.1.5-.1.2 0 .4 0 .6-.1.2-.1.1-.3.3-.5l.4-.1c.2-.1.3-.3.4-.5v-.2l.1-.3-.1-.2v-.3c0-.2 0-.4-.1-.5-.4-.7-1.2-.9-2-.8-.2 0-.3.1-.4.2-.2.1-.1.2-.3.2-.1 0-.2.1-.2.2v.3M23.5-64v.2c-.1.1-.1.1-.2.1-.1.1-.1.3-.1.4-.2.1 0 .2 0 .3v.2c0 .1 0 .3.1.4.1.2.3.4.4.5.2.1.4.6.6.6.2 0 .4-.1.5-.1.2 0 .4 0 .6-.1.2-.1.1-.3.3-.5l.4-.1c.2-.1.3-.3.4-.5v-.2l.1-.3-.1-.2v-.3c0-.2 0-.4-.1-.5-.4-.7-1.2-.9-2-.8-.2 0-.3.1-.4.2-.2.1-.1.2-.3.2-.1 0-.2.1-.2.2v.3M15.8-64v.2c-.1.1-.1.1-.2.1-.1.1-.1.3-.1.4-.2.1 0 .2 0 .3v.2c0 .1 0 .3.1.4.1.2.3.4.4.5.2.1.4.6.6.6.2 0 .4-.1.5-.1.2 0 .4 0 .6-.1.2-.1.1-.3.3-.5l.4-.1c.2-.1.3-.3.4-.5v-.2l.1-.3-.1-.2v-.3c0-.2 0-.4-.1-.5-.4-.7-1.2-.9-2-.8-.2 0-.3.1-.4.2-.2.1-.1.2-.3.2-.1 0-.2.1-.2.2v.3M8.2-64v.2c-.1.1-.2.1-.2.1-.1.1-.1.3-.1.4-.2.1 0 .2 0 .3v.2c0 .1 0 .3.1.4 0 .2.2.4.3.5.2.1.4.6.6.6.2 0 .4-.1.5-.1.2 0 .4 0 .6-.1.2-.1.1-.3.3-.5l.4-.1c.2-.1.3-.3.4-.5v-.2l.1-.3-.1-.2v-.3c0-.2 0-.4-.1-.5-.4-.7-1.2-.9-2-.8-.2 0-.3.1-.4.2-.2.1-.1.2-.3.2-.1 0-.2.1-.2.2l.1.3M.5-64v.2c-.1.1-.1.1-.2.1-.1.1-.1.3-.1.4-.2.1 0 .2 0 .3v.2c0 .1 0 .3.1.4.1.2.3.4.4.5.2.1.4.6.6.6.2 0 .4-.1.5-.1.2 0 .4 0 .6-.1.2-.1.1-.3.3-.5.1 0 .3.1.4 0 .2-.1.3-.3.4-.5v-.2l.1-.3-.1-.2v-.3c0-.2 0-.4-.1-.5-.4-.7-1.2-.9-2-.8-.2 0-.3.1-.4.2-.2.1-.1.2-.3.2-.1 0-.2.1-.2.2v.2M69.4-56.3v.2c-.1.1-.1.1-.2.1-.1.1-.1.3-.1.4-.2.1 0 .2 0 .3v.2c0 .1 0 .3.1.4.1.2.3.4.4.5.2.1.4.6.6.6.2 0 .4-.1.5-.1.2 0 .4 0 .6-.1.2-.1.1-.3.3-.5l.4-.1c.2-.1.3-.3.4-.5v-.2l.1-.3-.1-.2v-.3c0-.2 0-.4-.1-.5-.4-.7-1.2-.9-2-.8-.2 0-.3.1-.4.2-.2.1-.1.2-.3.2-.1 0-.2.1-.2.2v.3M61.8-56.3v.2c-.1.1-.1.1-.2.1-.1.1-.1.3-.1.4-.2.1 0 .2 0 .3v.2c0 .1 0 .3.1.4.1.2.3.4.4.5.2.1.4.6.6.6.2 0 .4-.1.5-.1.2 0 .4 0 .6-.1.2-.1.1-.3.3-.5l.4-.1c.2-.1.3-.3.4-.5v-.2l.1-.3-.1-.2v-.3c0-.2 0-.4-.1-.5-.4-.7-1.2-.9-2-.8-.2 0-.3.1-.4.2-.2.1-.1.2-.3.2-.1 0-.2.1-.2.2v.3M54.1-56.3v.2c-.1 0-.1 0-.2.1s-.1.3-.1.4c-.2.1 0 .2 0 .3v.2c0 .1 0 .3.1.4.1.2.3.4.4.5.2.1.4.6.6.6.2 0 .4-.1.5-.1.2 0 .4 0 .6-.1.2-.1.1-.3.3-.5l.4-.1c.2-.1.3-.3.4-.5v-.2l.1-.3-.1-.2v-.3c0-.2 0-.4-.1-.5-.4-.7-1.2-.9-2-.8-.2 0-.3.1-.4.2-.2.1-.1.2-.3.2-.1 0-.2.1-.2.2v.3M46.5-56.3v.2c-.1.1-.1.1-.2.1-.1.1-.1.3-.1.4-.2.1 0 .2 0 .3v.2c0 .1 0 .3.1.4.1.2.3.4.4.5.2.1.4.6.6.6.2 0 .4-.1.5-.1.2 0 .4 0 .6-.1.2-.1.1-.3.3-.5l.4-.1c.2-.1.3-.3.4-.5v-.2l.1-.3-.1-.2v-.3c0-.2 0-.4-.1-.5-.4-.7-1.2-.9-2-.8-.2 0-.3.1-.4.2-.2.1-.1.2-.3.2-.1 0-.2.1-.2.2v.3M38.8-56.3v.2c-.1.1-.1.1-.2.1-.1.1-.1.3-.1.4-.2.1 0 .2 0 .3v.2c0 .1 0 .3.1.4.1.2.3.4.4.5.2.1.4.6.6.6.2 0 .4-.1.5-.1.2 0 .4 0 .6-.1.2-.1.1-.3.3-.5l.4-.1c.2-.1.3-.3.4-.5v-.2l.1-.3-.1-.2v-.3c0-.2 0-.4-.1-.5-.4-.7-1.2-.9-2-.8-.2 0-.3.1-.4.2-.2.1-.1.2-.3.2-.1 0-.2.1-.2.2v.3M31.1-56.3v.2c-.1.1-.1.1-.2.1-.1.1-.1.3-.1.4-.2.1 0 .2 0 .3v.2c0 .1 0 .3.1.4.1.2.3.4.4.5.2.1.4.6.6.6.2 0 .4-.1.5-.1.2 0 .4 0 .6-.1.2-.1.1-.3.3-.5l.4-.1c.2-.1.3-.3.4-.5v-.2l.1-.3-.1-.2v-.3c0-.2 0-.4-.1-.5-.4-.7-1.2-.9-2-.8-.2 0-.3.1-.4.2-.2.1-.1.2-.3.2-.1 0-.2.1-.2.2v.3M23.5-56.3v.2c-.1.1-.1.1-.2.1-.1.1-.1.3-.1.4-.2.1 0 .2 0 .3v.2c0 .1 0 .3.1.4.1.2.3.4.4.5.2.1.4.6.6.6.2 0 .4-.1.5-.1.2 0 .4 0 .6-.1.2-.1.1-.3.3-.5l.4-.1c.2-.1.3-.3.4-.5v-.2l.1-.3-.1-.2v-.3c0-.2 0-.4-.1-.5-.4-.7-1.2-.9-2-.8-.2 0-.3.1-.4.2-.2.1-.1.2-.3.2-.1 0-.2.1-.2.2v.3M15.8-56.3v.2c-.1.1-.1.1-.2.1-.1.1-.1.3-.1.4-.2.1 0 .2 0 .3v.2c0 .1 0 .3.1.4.1.2.3.4.4.5.2.1.4.6.6.6.2 0 .4-.1.5-.1.2 0 .4 0 .6-.1.2-.1.1-.3.3-.5l.4-.1c.2-.1.3-.3.4-.5v-.2l.1-.3-.1-.2v-.3c0-.2 0-.4-.1-.5-.4-.7-1.2-.9-2-.8-.2 0-.3.1-.4.2-.2.1-.1.2-.3.2-.1 0-.2.1-.2.2v.3M8.2-56.3v.2c-.1 0-.2 0-.2.1-.1.1-.1.3-.1.4-.2.1 0 .2 0 .3v.2c0 .1 0 .3.1.4.1.2.3.4.4.5.2.1.4.6.6.6.2 0 .4-.1.5-.1.2 0 .4 0 .6-.1.2-.1.1-.3.3-.5l.4-.1c.2-.1.3-.3.4-.5v-.2l.1-.3-.1-.2v-.3c0-.2 0-.4-.1-.5-.4-.7-1.2-.9-2-.8-.2 0-.3.1-.4.2-.2.1-.1.2-.3.2-.1 0-.2.1-.2.2v.3M.5-56.3v.2c-.1.1-.1.1-.2.1-.1.1-.1.3-.1.4-.2.1 0 .2 0 .3v.2c0 .1 0 .3.1.4.1.2.3.4.4.5.2.1.4.6.6.6.2 0 .4-.1.5-.1.2 0 .4 0 .6-.1.2-.1.1-.3.3-.5l.4-.1c.2-.1.3-.3.4-.5v-.2l.1-.3-.1-.2v-.3c0-.2 0-.4-.1-.5-.4-.7-1.2-.9-2-.8-.2 0-.3.1-.4.2-.2.1-.1.2-.3.2-.1 0-.2.1-.2.2v.3M69.4-48.7v.2c-.1.1-.1.1-.2.1-.1.1-.1.3-.1.4-.2.1 0 .2 0 .3v.2c0 .1 0 .3.1.4.1.2.3.4.4.5.2.1.4.6.6.6.2 0 .4-.1.5-.1.2 0 .4 0 .6-.1.2-.1.1-.3.3-.5l.4-.1c.2-.1.3-.3.4-.5v-.2l.1-.3-.1-.2v-.3c0-.2 0-.4-.1-.5-.4-.7-1.2-.9-2-.8-.2 0-.3.1-.4.2-.2.1-.1.2-.3.2-.1 0-.2.1-.2.2v.3M61.8-48.7v.2c-.1.1-.1.1-.2.1-.1.1-.1.3-.1.4-.2.1 0 .2 0 .3v.2c0 .1 0 .3.1.4.1.2.3.4.4.5.2.1.4.6.6.6.2 0 .4-.1.5-.1.2 0 .4 0 .6-.1.2-.1.1-.3.3-.5l.4-.1c.2-.1.3-.3.4-.5v-.2l.1-.3-.1-.2v-.3c0-.2 0-.4-.1-.5-.4-.7-1.2-.9-2-.8-.2 0-.3.1-.4.2-.2.1-.1.2-.3.2-.1 0-.2.1-.2.2v.3M54.1-48.7v.2c-.1.1-.1.1-.2.1-.1.1-.1.3-.1.4-.2.1 0 .2 0 .3v.2c0 .1 0 .3.1.4.1.2.3.4.4.5.2.1.4.6.6.6.2 0 .4-.1.5-.1.2 0 .4 0 .6-.1.2-.1.1-.3.3-.5l.4-.1c.2-.1.3-.3.4-.5v-.2l.1-.3-.1-.2v-.3c0-.2 0-.4-.1-.5-.4-.7-1.2-.9-2-.8-.2 0-.3.1-.4.2-.2.1-.1.2-.3.2-.1 0-.2.1-.2.2v.3M46.5-48.7v.2c-.1.1-.1.1-.2.1-.1.1-.1.3-.1.4-.2.1 0 .2 0 .3v.2c0 .1 0 .3.1.4.1.2.3.4.4.5.2.1.4.6.6.6.2 0 .4-.1.5-.1.2 0 .4 0 .6-.1.2-.1.1-.3.3-.5l.4-.1c.2-.1.3-.3.4-.5v-.2l.1-.3-.1-.2v-.3c0-.2 0-.4-.1-.5-.4-.7-1.2-.9-2-.8-.2 0-.3.1-.4.2-.2.1-.1.2-.3.2-.1 0-.2.1-.2.2v.3M38.8-48.7v.2c-.1.1-.1.1-.2.1-.1.1-.1.3-.1.4-.2.1 0 .2 0 .3v.2c0 .1 0 .3.1.4.1.2.3.4.4.5.2.1.4.6.6.6.2 0 .4-.1.5-.1.2 0 .4 0 .6-.1.2-.1.1-.3.3-.5l.4-.1c.2-.1.3-.3.4-.5v-.2l.1-.3-.1-.2v-.3c0-.2 0-.4-.1-.5-.4-.7-1.2-.9-2-.8-.2 0-.3.1-.4.2-.2.1-.1.2-.3.2-.1 0-.2.1-.2.2v.3M31.1-48.7v.2c-.1.1-.1.1-.2.1-.1.1-.1.3-.1.4-.2.1 0 .2 0 .3v.2c0 .1 0 .3.1.4.1.2.3.4.4.5.2.1.4.6.6.6.2 0 .4-.1.5-.1.2 0 .4 0 .6-.1.2-.1.1-.3.3-.5l.4-.1c.2-.1.3-.3.4-.5v-.2l.1-.3-.1-.2v-.3c0-.2 0-.4-.1-.5-.4-.7-1.2-.9-2-.8-.2 0-.3.1-.4.2-.2.1-.1.2-.3.2-.1 0-.2.1-.2.2v.3M23.5-48.7v.2c-.1.1-.1.1-.2.1-.1.1-.1.3-.1.4-.2.1 0 .2 0 .3v.2c0 .1 0 .3.1.4.1.2.3.4.4.5.2.1.4.6.6.6.2 0 .4-.1.5-.1.2 0 .4 0 .6-.1.2-.1.1-.3.3-.5l.4-.1c.2-.1.3-.3.4-.5v-.2l.1-.3-.1-.2v-.3c0-.2 0-.4-.1-.5-.4-.7-1.2-.9-2-.8-.2 0-.3.1-.4.2-.2.1-.1.2-.3.2-.1 0-.2.1-.2.2v.3M15.8-48.7v.2c-.1.1-.1.1-.2.1-.1.1-.1.3-.1.4-.2.1 0 .2 0 .3v.2c0 .1 0 .3.1.4.1.2.3.4.4.5.2.1.4.6.6.6.2 0 .4-.1.5-.1.2 0 .4 0 .6-.1.2-.1.1-.3.3-.5l.4-.1c.2-.1.3-.3.4-.5v-.2l.1-.3-.1-.2v-.3c0-.2 0-.4-.1-.5-.4-.7-1.2-.9-2-.8-.2 0-.3.1-.4.2-.2.1-.1.2-.3.2-.1 0-.2.1-.2.2v.3M8.2-48.7v.2c-.1.1-.2.1-.2.1-.1.1-.1.3-.1.4-.2.1 0 .2 0 .3v.2c0 .1 0 .3.1.4.1.2.3.4.4.5.1.2.3.6.5.6s.4-.1.5-.1c.2 0 .4 0 .6-.1.2-.1.1-.3.3-.5l.4-.1c.2-.1.3-.3.4-.5v-.2l.1-.3-.1-.2v-.3c0-.2 0-.4-.1-.5-.4-.7-1.2-.9-2-.8-.2 0-.3.1-.4.2-.2.1-.1.2-.3.2-.1 0-.2.1-.2.2l.1.3M.5-48.7v.2c-.1.1-.1.1-.2.1-.1.1-.1.3-.1.4-.2.1 0 .2 0 .3v.2c0 .1 0 .3.1.4.1.2.3.4.4.5.2.2.3.6.6.6.2 0 .4-.1.5-.1.2 0 .4 0 .6-.1.2-.1.1-.3.3-.5l.4-.1c.2-.1.3-.3.4-.5v-.2l.1-.3-.1-.2v-.3c0-.2 0-.4-.1-.5-.4-.7-1.2-.9-2-.8-.2 0-.3.1-.4.2-.2.1-.1.2-.3.2-.1 0-.2.1-.2.2v.3M69.4-41v.2c-.1.1-.1.1-.2.1-.1.1-.1.3-.1.4-.2.1 0 .2 0 .3v.2c0 .1 0 .3.1.4.1.2.3.4.4.5.2.1.4.6.6.6.2 0 .4-.1.5-.1.2 0 .4 0 .6-.1.2-.1.1-.3.3-.5l.4-.1c.2-.1.3-.3.4-.5v-.2l.1-.3-.1-.2v-.3c0-.2 0-.4-.1-.5-.4-.7-1.2-.9-2-.8-.2 0-.3.1-.4.2-.2.1-.1.2-.3.2-.1 0-.2.1-.2.2v.3M61.8-41v.2c-.1.1-.1.1-.2.1-.1.1-.1.3-.1.4-.2.1 0 .2 0 .3v.2c0 .1 0 .3.1.4.1.2.3.4.4.5.2.1.4.6.6.6.2 0 .4-.1.5-.1.2 0 .4 0 .6-.1.2-.1.1-.3.3-.5l.4-.1c.2-.1.3-.3.4-.5v-.2l.1-.3-.1-.2v-.3c0-.2 0-.4-.1-.5-.4-.7-1.2-.9-2-.8-.2 0-.3.1-.4.2-.2.1-.1.2-.3.2-.1 0-.2.1-.2.2v.3M54.1-41v.2c-.1.1-.1.1-.2.1-.1.1-.1.3-.1.4-.2.1 0 .2 0 .3v.2c0 .1 0 .3.1.4.1.2.3.4.4.5.2.1.4.6.6.6.2 0 .4-.1.5-.1.2 0 .4 0 .6-.1.2-.1.1-.3.3-.5l.4-.1c.2-.1.3-.3.4-.5v-.2l.1-.3-.1-.2v-.3c0-.2 0-.4-.1-.5-.4-.7-1.2-.9-2-.8-.2 0-.3.1-.4.2-.2.1-.1.2-.3.2-.1 0-.2.1-.2.2v.3M46.5-41v.2c-.1.1-.1.1-.2.1-.1.1-.1.3-.1.4-.2.1 0 .2 0 .3v.2c0 .1 0 .3.1.4.1.2.3.4.4.5.2.1.4.6.6.6.2 0 .4-.1.5-.1.2 0 .4 0 .6-.1.2-.1.1-.3.3-.5l.4-.1c.2-.1.3-.3.4-.5v-.2l.1-.3-.1-.2v-.3c0-.2 0-.4-.1-.5-.4-.7-1.2-.9-2-.8-.2 0-.3.1-.4.2-.2.1-.1.2-.3.2-.1 0-.2.1-.2.2v.3M38.8-41v.2c-.1.1-.1.1-.2.1-.1.1-.1.3-.1.4-.2.1 0 .2 0 .3v.2c0 .1 0 .3.1.4.1.2.3.4.4.5.2.1.4.6.6.6.2 0 .4-.1.5-.1.2 0 .4 0 .6-.1.2-.1.1-.3.3-.5l.4-.1c.2-.1.3-.3.4-.5v-.2l.1-.3-.1-.2v-.3c0-.2 0-.4-.1-.5-.4-.7-1.2-.9-2-.8-.2 0-.3.1-.4.2-.2.1-.1.2-.3.2-.1 0-.2.1-.2.2v.3M31.1-41v.2c-.1.1-.1.1-.2.1-.1.1-.1.3-.1.4-.2.1 0 .2 0 .3v.2c0 .1 0 .3.1.4.1.2.3.4.4.5.2.1.4.6.6.6.2 0 .4-.1.5-.1.2 0 .4 0 .6-.1.2-.1.1-.3.3-.5l.4-.1c.2-.1.3-.3.4-.5v-.2l.1-.3-.1-.2v-.3c0-.2 0-.4-.1-.5-.4-.7-1.2-.9-2-.8-.2 0-.3.1-.4.2-.2.1-.1.2-.3.2-.1 0-.2.1-.2.2v.3M23.5-41v.2c-.1.1-.1.1-.2.1-.1.1-.1.3-.1.4-.2.1 0 .2 0 .3v.2c0 .1 0 .3.1.4.1.2.3.4.4.5.2.1.4.6.6.6.2 0 .4-.1.5-.1.2 0 .4 0 .6-.1.2-.1.1-.3.3-.5l.4-.1c.2-.1.3-.3.4-.5v-.2l.1-.3-.1-.2v-.3c0-.2 0-.4-.1-.5-.4-.7-1.2-.9-2-.8-.2 0-.3.1-.4.2-.2.1-.1.2-.3.2-.1 0-.2.1-.2.2v.3M15.8-41v.2c-.1.1-.1.1-.2.1-.1.1-.1.3-.1.4-.2.1 0 .2 0 .3v.2c0 .1 0 .3.1.4.1.2.3.4.4.5.2.1.4.6.6.6.2 0 .4-.1.5-.1.2 0 .4 0 .6-.1.2-.1.1-.3.3-.5l.4-.1c.2-.1.3-.3.4-.5v-.2l.1-.3-.1-.2v-.3c0-.2 0-.4-.1-.5-.4-.7-1.2-.9-2-.8-.2 0-.3.1-.4.2-.2.1-.1.2-.3.2-.1 0-.2.1-.2.2v.3M8.2-41v.2c-.1 0-.2 0-.2.1-.1.1-.1.3-.1.4-.2.1 0 .2 0 .3v.2c0 .1 0 .3.1.4.1.2.3.4.4.5.2.1.4.6.6.6.2 0 .4-.1.5-.1.2 0 .4 0 .6-.1.2-.1.1-.3.3-.5l.4-.1c.2-.1.3-.3.4-.5v-.2l.1-.3-.1-.2v-.3c0-.2 0-.4-.1-.5-.4-.7-1.2-.9-2-.8-.2 0-.3.1-.4.2-.2.1-.1.2-.3.2-.1 0-.2.1-.2.2v.3M.5-41v.2c-.1.1-.1.1-.2.1-.1.1-.1.3-.1.4-.2.1 0 .2 0 .3v.2c0 .1 0 .3.1.4.1.2.3.4.4.5.2.1.4.6.6.6.2 0 .4-.1.5-.1.2 0 .4 0 .6-.1.2-.1.1-.3.3-.5h.4c.2-.1.3-.3.4-.5v-.2l.1-.3-.1-.2v-.3c0-.2 0-.4-.1-.5-.4-.7-1.2-.9-2-.8-.2 0-.3.1-.4.2-.2.1-.1.2-.3.2-.1 0-.2.1-.2.2v.2M69.4-33.4v.2c-.1.1-.1.1-.2.1-.1.1-.1.3-.1.4-.2.1 0 .2 0 .3v.2c0 .1 0 .3.1.4.1.2.3.4.4.5.2.1.4.6.6.6.2 0 .4-.1.5-.1.2 0 .4 0 .6-.1.2-.1.1-.3.3-.5l.4-.1c.2-.1.3-.3.4-.5v-.2l.1-.3-.1-.2v-.3c0-.2 0-.4-.1-.5-.4-.7-1.2-.9-2-.8-.2 0-.3.1-.4.2-.2.1-.1.2-.3.2-.1 0-.2.1-.2.2v.3M61.8-33.4v.2c-.1.1-.1.1-.2.1-.1.1-.1.3-.1.4-.2.1 0 .2 0 .3v.2c0 .1 0 .3.1.4.1.2.3.4.4.5.2.1.4.6.6.6.2 0 .4-.1.5-.1.2 0 .4 0 .6-.1.2-.1.1-.3.3-.5l.4-.1c.2-.1.3-.3.4-.5v-.2l.1-.3-.1-.2v-.3c0-.2 0-.4-.1-.5-.4-.7-1.2-.9-2-.8-.2 0-.3.1-.4.2-.2.1-.1.2-.3.2-.1 0-.2.1-.2.2v.3M54.1-33.4v.2c-.1.1-.1.1-.2.1-.1.1-.1.3-.1.4-.2.1 0 .2 0 .3v.2c0 .1 0 .3.1.4.1.2.3.4.4.5.2.1.4.6.6.6.2 0 .4-.1.5-.1.2 0 .4 0 .6-.1.2-.1.1-.3.3-.5l.4-.1c.2-.1.3-.3.4-.5v-.2l.1-.3-.1-.2v-.3c0-.2 0-.4-.1-.5-.4-.7-1.2-.9-2-.8-.2 0-.3.1-.4.2-.2.1-.1.2-.3.2-.1 0-.2.1-.2.2v.3M46.5-33.4v.2c-.1.1-.1.1-.2.1-.1.1-.1.3-.1.4-.2.1 0 .2 0 .3v.2c0 .1 0 .3.1.4.1.2.3.4.4.5.2.1.4.6.6.6.2 0 .4-.1.5-.1.2 0 .4 0 .6-.1.2-.1.1-.3.3-.5l.4-.1c.2-.1.3-.3.4-.5v-.2l.1-.3-.1-.2v-.3c0-.2 0-.4-.1-.5-.4-.7-1.2-.9-2-.8-.2 0-.3.1-.4.2-.2.1-.1.2-.3.2-.1 0-.2.1-.2.2v.3M38.8-33.4v.2c-.1.1-.1.1-.2.1-.1.1-.1.3-.1.4-.2.1 0 .2 0 .3v.2c0 .1 0 .3.1.4.1.2.3.4.4.5.2.1.4.6.6.6.2 0 .4-.1.5-.1.2 0 .4 0 .6-.1.2-.1.1-.3.3-.5l.4-.1c.2-.1.3-.3.4-.5v-.2l.1-.3-.1-.2v-.3c0-.2 0-.4-.1-.5-.4-.7-1.2-.9-2-.8-.2 0-.3.1-.4.2-.2.1-.1.2-.3.2-.1 0-.2.1-.2.2v.3M31.1-33.4v.2c-.1.1-.1.1-.2.1-.1.1-.1.3-.1.4-.2.1 0 .2 0 .3v.2c0 .1 0 .3.1.4.1.2.3.4.4.5.2.1.4.6.6.6.2 0 .4-.1.5-.1.2 0 .4 0 .6-.1.2-.1.1-.3.3-.5l.4-.1c.2-.1.3-.3.4-.5v-.2l.1-.3-.1-.2v-.3c0-.2 0-.4-.1-.5-.4-.7-1.2-.9-2-.8-.2 0-.3.1-.4.2-.2.1-.1.2-.3.2-.1 0-.2.1-.2.2v.3M23.5-33.4v.2c-.1.1-.1.1-.2.1-.1.1-.1.3-.1.4-.2.1 0 .2 0 .3v.2c0 .1 0 .3.1.4.1.2.3.4.4.5.2.1.4.6.6.6.2 0 .4-.1.5-.1.2 0 .4 0 .6-.1.2-.1.1-.3.3-.5l.4-.1c.2-.1.3-.3.4-.5v-.2l.1-.3-.1-.2v-.3c0-.2 0-.4-.1-.5-.4-.7-1.2-.9-2-.8-.2 0-.3.1-.4.2-.2.1-.1.2-.3.2-.1 0-.2.1-.2.2v.3M15.8-33.4v.2c-.1.1-.1.1-.2.1-.1.1-.1.3-.1.4-.2.1 0 .2 0 .3v.2c0 .1 0 .3.1.4.1.2.3.4.4.5.2.1.4.6.6.6.2 0 .4-.1.5-.1.2 0 .4 0 .6-.1.2-.1.1-.3.3-.5l.4-.1c.2-.1.3-.3.4-.5v-.2l.1-.3-.1-.2v-.3c0-.2 0-.4-.1-.5-.4-.7-1.2-.9-2-.8-.2 0-.3.1-.4.2-.2.1-.1.2-.3.2-.1 0-.2.1-.2.2v.3M8.2-33.4v.2c-.1.1-.2.1-.2.1-.1.1-.1.3-.1.4-.2.1 0 .2 0 .3v.2c0 .1 0 .3.1.4.1.2.3.4.4.5.2.1.4.6.6.6.2 0 .4-.1.5-.1.2 0 .4 0 .6-.1.2-.1.1-.3.3-.5l.4-.1c.2-.1.3-.3.4-.5v-.2l.1-.3-.1-.2v-.3c0-.2 0-.4-.1-.5-.4-.7-1.2-.9-2-.8-.2 0-.3.1-.4.2-.2.1-.1.2-.3.2-.1 0-.2.1-.2.2v.3M.5-33.4v.2c-.1.1-.1.1-.2.1-.1.1-.1.3-.1.4-.2.1 0 .2 0 .3v.2c0 .1 0 .3.1.4.1.2.3.4.4.5.2.1.4.6.6.6.2 0 .4-.1.5-.1.2 0 .4 0 .6-.1.2-.1.1-.3.3-.5l.4-.1c.2-.1.3-.3.4-.5v-.2l.1-.3-.1-.2v-.3c0-.2 0-.4-.1-.5-.4-.7-1.2-.9-2-.8-.2 0-.3.1-.4.2-.2.1-.1.2-.3.2-.1 0-.2.1-.2.2v.3M69.4-25.7v.2c-.1.1-.1.1-.2.1-.1.1-.1.3-.1.4-.2.1 0 .2 0 .3v.2c0 .1 0 .3.1.4.1.2.3.4.4.5.2.1.4.6.6.6.2 0 .4-.1.5-.1.2 0 .4 0 .6-.1.2-.1.1-.3.3-.5l.4-.1c.2-.1.3-.3.4-.5v-.2l.1-.3-.1-.2v-.3c0-.2 0-.4-.1-.5-.4-.7-1.2-.9-2-.8-.2 0-.3.1-.4.2-.2.1-.1.2-.3.2-.1 0-.2.1-.2.2v.3M61.8-25.7v.2c-.1.1-.1.1-.2.1-.1.1-.1.3-.1.4-.2.1 0 .2 0 .3v.2c0 .1 0 .3.1.4.1.2.3.4.4.5.2.1.4.6.6.6.2 0 .4-.1.5-.1.2 0 .4 0 .6-.1.2-.1.1-.3.3-.5l.4-.1c.2-.1.3-.3.4-.5v-.2l.1-.3-.1-.2v-.3c0-.2 0-.4-.1-.5-.4-.7-1.2-.9-2-.8-.2 0-.3.1-.4.2-.2.1-.1.2-.3.2-.1 0-.2.1-.2.2v.3M54.1-25.7v.2c-.1.1-.1.1-.2.1-.1.1-.1.3-.1.4-.2.1 0 .2 0 .3v.2c0 .1 0 .3.1.4.1.2.3.4.4.5.2.1.4.6.6.6.2 0 .4-.1.5-.1.2 0 .4 0 .6-.1.2-.1.1-.3.3-.5l.4-.1c.2-.1.3-.3.4-.5v-.2l.1-.3-.1-.2v-.3c0-.2 0-.4-.1-.5-.4-.7-1.2-.9-2-.8-.2 0-.3.1-.4.2-.2.1-.1.2-.3.2-.1 0-.2.1-.2.2v.3M46.5-25.7v.2c-.1.1-.1.1-.2.1-.1.1-.1.3-.1.4-.2.1 0 .2 0 .3v.2c0 .1 0 .3.1.4.1.2.3.4.4.5.2.1.4.6.6.6.2 0 .4-.1.5-.1.2 0 .4 0 .6-.1.2-.1.1-.3.3-.5l.4-.1c.2-.1.3-.3.4-.5v-.2l.1-.3-.1-.2v-.3c0-.2 0-.4-.1-.5-.4-.7-1.2-.9-2-.8-.2 0-.3.1-.4.2-.2.1-.1.2-.3.2-.1 0-.2.1-.2.2v.3M38.8-25.7v.2c-.1.1-.1.1-.2.1-.1.1-.1.3-.1.4-.2.1 0 .2 0 .3v.2c0 .1 0 .3.1.4.1.2.3.4.4.5.2.1.4.6.6.6.2 0 .4-.1.5-.1.2 0 .4 0 .6-.1.2-.1.1-.3.3-.5l.4-.1c.2-.1.3-.3.4-.5v-.2l.1-.3-.1-.2v-.3c0-.2 0-.4-.1-.5-.4-.7-1.2-.9-2-.8-.2 0-.3.1-.4.2-.2.1-.1.2-.3.2-.1 0-.2.1-.2.2v.3M31.1-25.7v.2c-.1.1-.1.1-.2.1-.1.1-.1.3-.1.4-.2.1 0 .2 0 .3v.2c0 .1 0 .3.1.4.1.2.3.4.4.5.2.1.4.6.6.6.2 0 .4-.1.5-.1.2 0 .4 0 .6-.1.2-.1.1-.3.3-.5l.4-.1c.2-.1.3-.3.4-.5v-.2l.1-.3-.1-.2v-.3c0-.2 0-.4-.1-.5-.4-.7-1.2-.9-2-.8-.2 0-.3.1-.4.2-.2.1-.1.2-.3.2-.1 0-.2.1-.2.2v.3M23.5-25.7v.2c-.1.1-.1.1-.2.1-.1.1-.1.3-.1.4-.2.1 0 .2 0 .3v.2c0 .1 0 .3.1.4.1.2.3.4.4.5.2.1.4.6.6.6.2 0 .4-.1.5-.1.2 0 .4 0 .6-.1.2-.1.1-.3.3-.5l.4-.1c.2-.1.3-.3.4-.5v-.2l.1-.3-.1-.2v-.3c0-.2 0-.4-.1-.5-.4-.7-1.2-.9-2-.8-.2 0-.3.1-.4.2-.2.1-.1.2-.3.2-.1 0-.2.1-.2.2v.3M15.8-25.7v.2c-.1.1-.1.1-.2.1-.1.1-.1.3-.1.4-.2.1 0 .2 0 .3v.2c0 .1 0 .3.1.4.1.2.3.4.4.5.2.1.4.6.6.6.2 0 .4-.1.5-.1.2 0 .4 0 .6-.1.2-.1.1-.3.3-.5l.4-.1c.2-.1.3-.3.4-.5v-.2l.1-.3-.1-.2v-.3c0-.2 0-.4-.1-.5-.4-.7-1.2-.9-2-.8-.2 0-.3.1-.4.2-.2.1-.1.2-.3.2-.1 0-.2.1-.2.2v.3M8.2-25.7v.2l-.2.1c-.1.1-.1.3-.1.4-.2.1 0 .2 0 .3v.2c0 .1 0 .3.1.4 0 .1.2.3.3.5.2.1.4.6.6.6.2 0 .4-.1.5-.1.2 0 .4 0 .6-.1.2-.1.1-.3.3-.5l.4-.1c.2-.1.3-.3.4-.5v-.2l.1-.3-.1-.2v-.3c0-.2 0-.4-.1-.5-.4-.7-1.2-.9-2-.8-.2 0-.3.1-.4.2-.2.1-.1.2-.3.2-.1 0-.2.1-.2.2.1.2.1.2.1.3M.5-25.7v.2c-.1.1-.1.1-.2.1-.1.1-.1.3-.1.4-.2.1 0 .2 0 .3v.2c0 .1 0 .3.1.4.1.2.3.4.4.5.2.1.3.5.6.6.2 0 .4-.1.5-.1.2 0 .4 0 .6-.1.2-.1.1-.3.3-.5l.4-.1c.2-.1.3-.3.4-.5v-.2l.1-.3-.1-.2v-.3c0-.2 0-.4-.1-.5-.4-.7-1.2-.9-2-.8-.2 0-.3.1-.4.2-.2.1-.1.2-.3.2-.1 0-.2.1-.2.2v.3M69.4-18.1v.2c-.1.1-.1.1-.2.1-.1.1-.1.3-.1.4-.2.1 0 .2 0 .3v.2c0 .1 0 .3.1.4.1.2.3.4.4.5.2.1.4.6.6.6.2 0 .4-.1.5-.1.2 0 .4 0 .6-.1.2-.1.1-.3.3-.5l.4-.1c.2-.1.3-.3.4-.5v-.2l.1-.3-.1-.2v-.3c0-.2 0-.4-.1-.5-.4-.7-1.2-.9-2-.8-.2 0-.3.1-.4.2-.2.1-.1.2-.3.2-.1 0-.2.1-.2.2v.3M61.8-18.1v.2c-.1.1-.1.1-.2.1-.1.1-.1.3-.1.4-.2.1 0 .2 0 .3v.2c0 .1 0 .3.1.4.1.2.3.4.4.5.2.1.4.6.6.6.2 0 .4-.1.5-.1.2 0 .4 0 .6-.1.2-.1.1-.3.3-.5l.4-.1c.2-.1.3-.3.4-.5v-.2l.1-.3-.1-.2v-.3c0-.2 0-.4-.1-.5-.4-.7-1.2-.9-2-.8-.2 0-.3.1-.4.2-.2.1-.1.2-.3.2-.1 0-.2.1-.2.2v.3M54.1-18.1v.2c-.1.1-.1.1-.2.1-.1.1-.1.3-.1.4-.2.1 0 .2 0 .3v.2c0 .1 0 .3.1.4.1.2.3.4.4.5.2.1.4.6.6.6.2 0 .4-.1.5-.1.2 0 .4 0 .6-.1.2-.1.1-.3.3-.5l.4-.1c.2-.1.3-.3.4-.5v-.2l.1-.3-.1-.2v-.3c0-.2 0-.4-.1-.5-.4-.7-1.2-.9-2-.8-.2 0-.3.1-.4.2-.2.1-.1.2-.3.2-.1 0-.2.1-.2.2v.3M46.5-18.1v.2c-.1.1-.1.1-.2.1-.1.1-.1.3-.1.4-.2.1 0 .2 0 .3v.2c0 .1 0 .3.1.4.1.2.3.4.4.5.2.1.4.6.6.6.2 0 .4-.1.5-.1.2 0 .4 0 .6-.1.2-.1.1-.3.3-.5l.4-.1c.2-.1.3-.3.4-.5v-.2l.1-.3-.1-.2v-.3c0-.2 0-.4-.1-.5-.4-.7-1.2-.9-2-.8-.2 0-.3.1-.4.2-.2.1-.1.2-.3.2-.1 0-.2.1-.2.2v.3M38.8-18.1v.2c-.1.1-.1.1-.2.1-.1.1-.1.3-.1.4-.2.1 0 .2 0 .3v.2c0 .1 0 .3.1.4.1.2.3.4.4.5.2.1.4.6.6.6.2 0 .4-.1.5-.1.2 0 .4 0 .6-.1.2-.1.1-.3.3-.5l.4-.1c.2-.1.3-.3.4-.5v-.2l.1-.3-.1-.2v-.3c0-.2 0-.4-.1-.5-.4-.7-1.2-.9-2-.8-.2 0-.3.1-.4.2-.2.1-.1.2-.3.2-.1 0-.2.1-.2.2v.3M31.1-18.1v.2c-.1.1-.1.1-.2.1-.1.1-.1.3-.1.4-.2.1 0 .2 0 .3v.2c0 .1 0 .3.1.4.1.2.3.4.4.5.2.1.4.6.6.6.2 0 .4-.1.5-.1.2 0 .4 0 .6-.1.2-.1.1-.3.3-.5l.4-.1c.2-.1.3-.3.4-.5v-.2l.1-.3-.1-.2v-.3c0-.2 0-.4-.1-.5-.4-.7-1.2-.9-2-.8-.2 0-.3.1-.4.2-.2.1-.1.2-.3.2-.1 0-.2.1-.2.2v.3M23.5-18.1v.2c-.1.1-.1.1-.2.1-.1.1-.1.3-.1.4-.2.1 0 .2 0 .3v.2c0 .1 0 .3.1.4.1.2.3.4.4.5.2.1.4.6.6.6.2 0 .4-.1.5-.1.2 0 .4 0 .6-.1.2-.1.1-.3.3-.5l.4-.1c.2-.1.3-.3.4-.5v-.2l.1-.3-.1-.2v-.3c0-.2 0-.4-.1-.5-.4-.7-1.2-.9-2-.8-.2 0-.3.1-.4.2-.2.1-.1.2-.3.2-.1 0-.2.1-.2.2v.3M15.8-18.1v.2c-.1.1-.1.1-.2.1-.1.1-.1.3-.1.4-.2.1 0 .2 0 .3v.2c0 .1 0 .3.1.4.1.2.3.4.4.5.2.1.4.6.6.6.2 0 .4-.1.5-.1.2 0 .4 0 .6-.1.2-.1.1-.3.3-.5l.4-.1c.2-.1.3-.3.4-.5v-.2l.1-.3-.1-.2v-.3c0-.2 0-.4-.1-.5-.4-.7-1.2-.9-2-.8-.2 0-.3.1-.4.2-.2.1-.1.2-.3.2-.1 0-.2.1-.2.2v.3M8.2-18.1v.2c-.1.1-.2.1-.2.1-.1.1-.1.3-.1.4-.2.1 0 .2 0 .3v.2c0 .1 0 .3.1.4 0 .2.2.4.3.5.2.1.4.6.6.6.2 0 .4-.1.5-.1.2 0 .4 0 .6-.1.2-.1.1-.3.3-.5l.4-.1c.2-.1.3-.3.4-.5v-.2l.1-.3-.1-.2v-.3c0-.2 0-.4-.1-.5-.4-.7-1.2-.9-2-.8-.2 0-.3.1-.4.2-.2.1-.1.2-.3.2-.1 0-.2.1-.2.2l.1.3c-.1.1-.1 0 0 0M.5-18.1v.2c-.1.1-.1.1-.2.1-.1.1-.1.3-.1.4-.2.1 0 .2 0 .3v.2c0 .1 0 .3.1.4.1.2.3.4.4.5.2.1.4.6.6.6.2 0 .4-.1.5-.1.2 0 .4 0 .6-.1.2-.1.1-.3.3-.5l.4.1c.2-.1.3-.3.4-.5v-.2l.1-.3-.1-.2v-.3c0-.2 0-.4-.1-.5-.4-.7-1.2-.9-2-.8-.2 0-.3.1-.4.2-.2.1-.1.2-.3.2-.1 0-.2.1-.2.2v.1M69.4-10.4v.2c-.1.1-.1.1-.2.1-.1.1-.1.3-.1.4-.2.1 0 .2 0 .3v.2c0 .1 0 .3.1.4.1.2.3.4.4.5.2.1.4.6.6.6.2 0 .4-.1.5-.1.2 0 .4 0 .6-.1.2-.1.1-.3.3-.5l.4-.1c.2-.1.3-.3.4-.5v-.2l.1-.3-.1-.2v-.3c0-.2 0-.4-.1-.5-.4-.7-1.2-.9-2-.8-.2 0-.3.1-.4.2-.2.1-.1.2-.3.2-.1 0-.2.1-.2.2v.3M61.8-10.4v.2c-.1.1-.1.1-.2.1-.1.1-.1.3-.1.4-.2.1 0 .2 0 .3v.2c0 .1 0 .3.1.4.1.2.3.4.4.5.2.1.4.6.6.6.2 0 .4-.1.5-.1.2 0 .4 0 .6-.1l.3-.4.4-.1c.2-.1.3-.3.4-.5v-.2l.1-.3-.1-.2v-.3c0-.2 0-.4-.1-.5-.4-.7-1.2-.9-2-.8-.2 0-.3.1-.4.2-.2.1-.1.2-.3.2-.1 0-.2.1-.2.2v.2M54.1-10.4v.2c-.1.1-.1.1-.2.1-.1.1-.1.3-.1.4-.2.1 0 .2 0 .3v.2c0 .1 0 .3.1.4.1.2.3.4.4.5.2.1.4.6.6.6.2 0 .4-.1.5-.1.2 0 .4 0 .6-.1.2-.1.1-.3.3-.5l.4-.1c.2-.1.3-.3.4-.5v-.2l.1-.3-.1-.2v-.3c0-.2 0-.4-.1-.5-.4-.7-1.2-.9-2-.8-.2 0-.3.1-.4.2-.2.1-.1.2-.3.2-.1 0-.2.1-.2.2v.3M46.5-10.4v.2c-.1.1-.1.1-.2.1-.1.1-.1.3-.1.4-.2.1 0 .2 0 .3v.2c0 .1 0 .3.1.4.1.2.3.4.4.5.2.1.4.6.6.6.2 0 .4-.1.5-.1.2 0 .4 0 .6-.1.2-.1.1-.3.3-.5l.4-.1c.2-.1.3-.3.4-.5v-.2l.1-.3-.1-.2v-.3c0-.2 0-.4-.1-.5-.4-.7-1.2-.9-2-.8-.2 0-.3.1-.4.2-.2.1-.1.2-.3.2-.1 0-.2.1-.2.2v.3M38.8-10.4v.2c-.1.1-.1.1-.2.1-.1.1-.1.3-.1.4-.2.1 0 .2 0 .3v.2c0 .1 0 .3.1.4.1.2.3.4.4.5.2.1.4.6.6.6.2 0 .4-.1.5-.1.2 0 .4 0 .6-.1l.3-.4.4-.1c.2-.1.3-.3.4-.5v-.2l.1-.3-.1-.2v-.3c0-.2 0-.4-.1-.5-.4-.7-1.2-.9-2-.8-.2 0-.3.1-.4.2-.2.1-.1.2-.3.2-.1 0-.2.1-.2.2v.2M31.1-10.4v.2c-.1.1-.1.1-.2.1-.1.1-.1.3-.1.4-.2.1 0 .2 0 .3v.2c0 .1 0 .3.1.4.1.2.3.4.4.5.2.1.4.6.6.6.2 0 .4-.1.5-.1.2 0 .4 0 .6-.1.2-.1.1-.3.3-.5l.4-.1c.2-.1.3-.3.4-.5v-.2l.1-.3-.1-.2v-.3c0-.2 0-.4-.1-.5-.4-.7-1.2-.9-2-.8-.2 0-.3.1-.4.2-.2.1-.1.2-.3.2-.1 0-.2.1-.2.2v.3M23.5-10.4v.2c-.1.1-.1.1-.2.1-.1.1-.1.3-.1.4-.2.1 0 .2 0 .3v.2c0 .1 0 .3.1.4.1.2.3.4.4.5.2.1.4.6.6.6.2 0 .4-.1.5-.1.2 0 .4 0 .6-.1.2-.1.1-.3.3-.5l.4-.1c.2-.1.3-.3.4-.5v-.2l.1-.3-.1-.2v-.3c0-.2 0-.4-.1-.5-.4-.7-1.2-.9-2-.8-.2 0-.3.1-.4.2-.2.1-.1.2-.3.2-.1 0-.2.1-.2.2v.3M15.8-10.4v.2c-.1.1-.1.1-.2.1-.1.1-.1.3-.1.4-.2.1 0 .2 0 .3v.2c0 .1 0 .3.1.4.1.2.3.4.4.5.2.1.4.6.6.6.2 0 .4-.1.5-.1.2 0 .4 0 .6-.1l.3-.4.4-.1c.2-.1.3-.3.4-.5v-.2l.1-.3-.1-.2v-.3c0-.2 0-.4-.1-.5-.4-.7-1.2-.9-2-.8-.2 0-.3.1-.4.2-.2.1-.1.2-.3.2-.1 0-.2.1-.2.2v.2M8.2-10.4v.2l-.2.1c-.1.1-.1.3-.1.3-.2.1 0 .2 0 .3v.2c0 .1 0 .3.1.4 0 .2.2.4.3.6.2.1.4.6.6.6.2 0 .4-.1.5-.1.2 0 .4 0 .6-.1.2-.1.1-.3.3-.5l.4-.1c.2-.1.3-.3.4-.5v-.2l.1-.3-.1-.2v-.3c0-.2 0-.4-.1-.5-.4-.7-1.2-.9-2-.8-.2 0-.3.1-.4.2-.2.1-.1.2-.3.2-.1 0-.2.1-.2.2.1.2.1.2.1.3M.5-10.4v.2c-.1.1-.1.1-.2.1 0 .1-.1.3-.1.3-.2.1 0 .2 0 .3v.2c0 .1 0 .3.1.4.1.2.3.4.4.5.2.2.3.6.6.7.2 0 .4-.1.5-.1.2 0 .4 0 .6-.1l.3-.4.4-.1c.2-.1.3-.3.4-.5v-.2l.1-.3-.1-.2v-.3c0-.2 0-.4-.1-.5-.4-.7-1.2-.9-2-.8-.2 0-.3.1-.4.2-.2.1-.1.2-.3.2-.1 0-.2.1-.2.2v.2M69.4-2.8v.2c-.1.1-.1.1-.2.1-.1.1-.1.3-.1.4-.2.1 0 .2 0 .3v.2c0 .1 0 .3.1.4.1.2.3.4.4.5.2.2.4.6.6.7.2 0 .4-.1.5-.1.2 0 .4 0 .6-.1.2-.1.1-.3.3-.5l.4-.1c.2-.1.3-.3.4-.5v-.2l.1-.3-.1-.2v-.3c0-.2 0-.4-.1-.5-.4-.7-1.2-.9-2-.8-.2 0-.3.1-.4.2-.2.1-.1.2-.3.2-.1 0-.2.1-.2.2v.2M61.8-2.8v.2c-.1.1-.1.1-.2.1-.1.1-.1.3-.1.4-.2.1 0 .2 0 .3v.2c0 .1 0 .3.1.4 0 .2.2.4.4.5.2.1.4.6.6.6.2 0 .4-.1.5-.1.2 0 .4 0 .6-.1.2-.1.1-.3.3-.5l.4-.1c.2-.1.3-.3.4-.5v-.2l.1-.3-.1-.2v-.3c0-.2 0-.4-.1-.5-.4-.7-1.2-.9-2-.8-.2 0-.3.1-.4.2-.2.1-.1.2-.3.2-.1 0-.2.1-.2.2v.3M54.1-2.8v.2c-.1.1-.1.1-.2.1-.1.1-.1.3-.1.4-.2.1 0 .2 0 .3v.2c0 .1 0 .3.1.4.1.2.2.4.4.5.2.1.4.6.6.6.2 0 .4-.1.5-.1.2 0 .4 0 .6-.1.2-.1.1-.3.3-.5l.4-.1c.2.1.3-.1.4-.3v-.2l.1-.3-.1-.2v-.3c0-.2 0-.4-.1-.5-.4-.7-1.2-.9-2-.8-.2 0-.3.1-.4.2-.2.1-.1.2-.3.2-.1 0-.2.1-.2.2v.1M46.5-2.8v.2c-.1.1-.1.1-.2.1-.1.1-.1.3-.1.4-.2.1 0 .2 0 .3v.2c0 .1 0 .3.1.4.1.2.3.4.4.5.1.2.3.6.5.7.2 0 .4-.1.5-.1.2 0 .4 0 .6-.1.2-.1.1-.3.3-.5l.4-.1c.2-.1.3-.3.4-.5v-.2l.1-.3-.1-.2v-.3c0-.2 0-.4-.1-.5-.4-.7-1.2-.9-2-.8-.2 0-.3.1-.4.2-.2.1-.1.2-.3.2-.1 0-.2.1-.2.2l.1.2M38.8-2.8v.2c-.1.1-.1.1-.2.1-.1.1-.1.3-.1.4-.2.1 0 .2 0 .3v.2c0 .1 0 .3.1.4 0 .2.2.4.4.5.2.1.4.6.6.6.2 0 .4-.1.5-.1.2 0 .4 0 .6-.1.2-.1.1-.3.3-.5l.4-.1c.2-.1.3-.3.4-.5v-.2l.1-.3-.1-.2v-.3c0-.2 0-.4-.1-.5-.4-.7-1.2-.9-2-.8-.2 0-.3.1-.4.2-.2.1-.1.2-.3.2-.1 0-.2.1-.2.2v.3M31.1-2.8v.2c-.1.1-.1.1-.2.1-.1.1-.1.3-.1.4-.2.1 0 .2 0 .3v.2c0 .1 0 .3.1.4.1.2.2.4.4.5.2.1.4.6.6.6.2 0 .4-.1.5-.1.2 0 .4 0 .6-.1.2-.1.1-.3.3-.5l.4-.1c.2-.1.3-.3.4-.5v-.2l.1-.3-.1-.2v-.3c0-.2 0-.4-.1-.5-.4-.7-1.2-.9-2-.8-.2 0-.3.1-.4.2-.2.1-.1.2-.3.2-.1 0-.2.1-.2.2v.3M23.5-2.8v.2c-.1.1-.1.1-.2.1-.1.1-.1.3-.1.4-.2.1 0 .2 0 .3v.2c0 .1 0 .3.1.4.1.2.3.4.4.5.1.2.3.6.6.7.2 0 .4-.1.5-.1.2 0 .4 0 .6-.1.2-.1.1-.3.3-.5l.4-.1c.2-.1.3-.3.4-.5v-.2l.1-.3-.1-.2v-.3c0-.2 0-.4-.1-.5-.4-.7-1.2-.9-2-.8-.2 0-.3.1-.4.2-.2.1-.1.2-.3.2-.1 0-.2.1-.2.2v.2M15.8-2.8v.2c-.1.1-.1.1-.2.1-.1.1-.1.3-.1.4-.2.1 0 .2 0 .3v.2c0 .1 0 .3.1.4.1.2.2.4.4.5.2.1.4.6.6.6.2 0 .4-.1.5-.1.2 0 .4 0 .6-.1.2-.1.1-.3.3-.5l.4-.1c.2-.1.3-.3.4-.5v-.2l.1-.3-.1-.2v-.3c0-.2 0-.4-.1-.5-.4-.7-1.2-.9-2-.8-.2 0-.3.1-.4.2-.2.1-.1.2-.3.2-.1 0-.2.1-.2.2v.3M8.2-2.8v.2c-.1.1-.2.1-.2.1-.1.1-.1.3-.1.4-.2.1 0 .2 0 .3v.2c0 .1 0 .3.1.4 0 .2.2.4.3.5.2.2.4.6.6.7.2 0 .4-.1.5-.1.2 0 .4 0 .6-.1.2-.1.1-.3.3-.5l.4-.1c.2-.1.3-.3.4-.5v-.2l.1-.3-.1-.2v-.3c0-.2 0-.4-.1-.5-.4-.7-1.2-.9-2-.8 0 .1-.2.2-.3.2l-.3.3c-.1 0-.2.1-.2.2v.1c-.1.1-.1 0 0 0M.5-2.8v.2c-.1.1-.1.1-.2.1l-.1.4c-.2.1 0 .2 0 .3v.2c0 .1 0 .3.1.4 0 .2.2.4.4.5.2.2.3.6.6.7.2 0 .4-.1.5-.1.2 0 .4 0 .6-.1.2-.1.1-.3.3-.5l.4-.1c.2 0 .3-.2.4-.4v-.2l.1-.3-.1-.2v-.3c0-.2 0-.4-.1-.5-.4-.7-1.2-.9-2-.8-.1 0-.2.1-.4.1-.1.1-.1.2-.3.3-.1 0-.2.1-.2.2v.1"/></pattern><path class="st0" d="M420.6 616.3c-.8-1.4-2-2.4-3.7-3.2-1.7-.8-3.6-1.2-5.7-1.2-2.7 0-5.1.8-7.2 2.4-2.1 1.6-3.7 5-4.6 10-.8 4-1.1 8.1-1.1 12.4 0 9 1.3 15.7 3.8 20.3.7 1.3 1.9 2.4 3.6 3.2 1.7.8 3.6 1.2 5.6 1.2 2.9 0 5.3-.8 7.3-2.4 2.1-1.6 3.6-4.9 4.6-10 .8-3.9 1.1-8 1.1-12.1 0-4.3-.3-8.3-1-12-.6-3.7-1.5-6.6-2.7-8.6z"/><path class="st3" d="M475.8 468.5c-1.8 3.6-4 5.5-6.5 5.9-1.5.2-3.3 0-5.5-.8-.9-.3-1.6-.7-2-1.2-.4-.5-.6-1.4-.6-2.8v-20.9c4.9 1.4 7.5 6.8 7.6 16.3l2.4.8v-30.3l-2.4-.8c0 2-.1 3.4-.2 4.3-.2 1.7-.7 3.2-1.5 4.4-1.4 2.1-3.4 2.7-5.9 1.8v-19.8c0-1.3.1-2.1.3-2.5.3-.6 1-.7 2.2-.3 2.1.7 3.7 1.5 4.9 2.3 2 1.3 3.6 3.2 4.9 5.7 1.9 3.9 3.2 8.5 3.8 14.1l2.5.9-.3-18.3c-.1-1.8-.8-2.9-2-3.3l-31.3-10.7v3.5l.9.3c1.9.7 3.2 2.2 3.8 4.5.2.8.4 2.3.4 4.5v35.8c0 2.7-.3 4.6-1 5.5-.6.9-1.7 1.2-3.2.6l-.9-.3v3.5l32 10.9c.8.3 1.5.2 1.8-.3.3-.4.5-1.2.5-2.5v-19l-2.3-.8c-.6 4.1-1.4 7.1-2.4 9zM498.8 450.9c-3.7-3.9-6-6.4-6.8-7.7-1.3-1.9-2-3.7-2-5.6 0-1.7.4-3.1 1.3-4.1 1-1.2 2.3-1.5 4-.9 2.8 1 5.3 3.6 7.5 7.9.9 1.9 1.7 3.8 2.2 5.6.5 1.8 1 4.2 1.4 7.2l2.5.8v-21l-2.5-.8-1.1 3.5c-.2.8-.5 1.2-.9 1-.3-.1-.7-.5-1.2-1-1.4-1.8-2.3-2.9-2.8-3.4-1.6-1.7-3.3-2.8-4.9-3.3-2.7-.9-5-.5-7 1.1-2.5 2.1-3.7 5.9-3.7 11.3 0 6.1 1.5 11.5 4.4 16.3 1.4 2.2 3.7 5 7.1 8.4 3.3 3.4 5.5 5.9 6.6 7.7 1.5 2.4 2.2 4.8 2.2 7.3 0 2.1-.5 3.7-1.6 4.7-1.1 1.1-2.6 1.3-4.6.6-3.7-1.3-6.8-5.1-9.2-11.5-1.5-3.9-2.6-8.8-3.4-14.7l-2.4-.8v25.7l2.5.9 1.2-3.9c.2-.9.6-1.2 1-1.1.3.1.6.5 1.1 1.1 1.3 1.9 2.4 3.3 3.4 4.3 1.9 2.1 3.9 3.4 5.9 4.1 2.6.9 4.9.6 7-.8 3.1-2.1 4.7-6.3 4.7-12.7 0-4.8-.9-9.4-2.9-13.7-1.5-3.7-4.5-7.8-9-12.5zM545.9 449.4c0-1.3-.6-2.2-1.6-2.5l-30.3-10.4c-.5-.2-.8-.1-1 .2-.2.2-.3.9-.3 1.8v19.7l2.4.8c.2-2.4.4-4.4.6-5.9.6-4.9 1.8-8 3.5-9.5 1.1-.9 2.6-1.1 4.5-.4.2.1.4.1.7.2v43.3c0 2.7-.3 4.6-1 5.5-.6.9-1.7 1.2-3.2.6l-.9-.3v3.5l20 6.8v-3.5l-.9-.3c-1.9-.7-3.2-2.2-3.8-4.5-.2-.8-.4-2.3-.4-4.5v-43.3c.5.2 1 .3 1.3.4 2.4.8 4.4 3.5 5.8 7.9.5 1.6.9 3.2 1.2 5 .3 1.7.6 4.6 1 8.6l2.4.8v-20zM550.7 494.2c-1.4-.5-2.5-.2-3.4.8-.9 1.1-1.4 2.5-1.4 4.4 0 1.8.5 3.6 1.4 5.3.9 1.6 2 2.7 3.4 3.1 1.3.5 2.4.2 3.3-.9.9-1.1 1.4-2.5 1.4-4.3 0-1.8-.5-3.6-1.4-5.3-.9-1.6-2-2.7-3.3-3.1zM593.7 515c-.2-.8-.4-2.3-.4-4.5v-45.4l-2.2-.8c-2.4.2-4.4.2-6 0-1.7-.2-3.5-.7-5.5-1.4l-1.9-.7v3.7c.6.2.9.3 1.1.4 1.6.6 2.8 1.4 3.6 2.7.8 1.3 1.3 3.6 1.3 6.7v31.5c0 1.4-.1 2.5-.2 3.3-.1.9-.4 1.7-.9 2.3-.7.9-1.9 1.1-3.5.5l-1.2-.4v3.5l21 7.2v-3.5l-1.2-.4c-2-.9-3.4-2.4-4-4.7zM623.4 479.3c-2.4-3.7-5.2-6-8.3-7.1-3.4-1.2-6.3-.5-8.7 2.1-2.7 2.8-4 7-4 12.7 0 2.7.3 5.4 1 8.1.7 2.7 1.6 5.1 2.7 7.1 2 3.4 4.3 5.6 6.9 6.5 2.1.7 4.2.3 6.3-1.1v3.6c0 3.6-.2 6.3-.4 8.2-.3 2.1-.9 3.8-1.7 4.9-.9 1.2-2.1 1.6-3.4 1.2-1-.3-1.5-1-1.5-2 0-.3 0-.4.1-.5l.9-1.6c.3-.8.4-1.6.4-2.6 0-1.3-.2-2.7-.7-4.1-.8-2.3-2.2-3.8-4-4.5-1.1-.4-2.1-.3-3 .4-1.4 1-2.2 2.8-2.2 5.4 0 2.9.9 5.5 2.7 8 1.9 2.6 4.3 4.4 7.2 5.4 3.9 1.3 7.1.6 9.8-2 2-2 3.5-4.9 4.6-8.7 1.1-3.8 1.6-8.2 1.6-13.3 0-4.5-.4-8.8-1.2-12.8-1.1-5.4-2.8-9.9-5.1-13.3zm-4.7 19.1c0 1.9-.2 3.5-.6 4.6-.2.6-.5 1.1-1 1.4-.5.3-1 .4-1.5.2-.6-.2-1.1-.6-1.6-1.3-.5-.7-.8-1.5-1-2.3-.5-2-.7-6.1-.7-12.1 0-5.1.1-8.5.4-10.1.2-1.1.5-1.8 1-2.3.5-.5 1.1-.6 1.7-.4.9.3 1.5.9 2 1.9.4.9.8 2.3 1 4 .3 2 .4 6 .4 12.1-.1 1.6-.1 3-.1 4.3zM654 489.7c-2.4-3.7-5.2-6-8.3-7.1-3.4-1.2-6.3-.5-8.7 2.1-2.7 2.8-4 7-4 12.7 0 2.7.3 5.4 1 8.1.7 2.7 1.6 5.1 2.7 7.1 2 3.4 4.3 5.6 6.9 6.5 2.1.7 4.2.3 6.3-1.1v3.6c0 3.6-.2 6.3-.4 8.2-.3 2.1-.9 3.8-1.7 4.9-.9 1.2-2.1 1.6-3.4 1.2-1-.3-1.5-1-1.5-2 0-.3 0-.4.1-.5l.9-1.6c.3-.8.4-1.6.4-2.6 0-1.3-.2-2.7-.7-4.1-.8-2.3-2.2-3.8-4-4.5-1.1-.4-2.1-.3-3 .4-1.4 1-2.2 2.8-2.2 5.4 0 2.9.9 5.5 2.7 8 1.9 2.6 4.3 4.4 7.2 5.4 3.9 1.3 7.2.6 9.8-2 2-2 3.5-4.9 4.6-8.7 1.1-3.8 1.6-8.2 1.6-13.3 0-4.5-.4-8.8-1.2-12.8-1.1-5.4-2.8-9.8-5.1-13.3zm-4.7 19.2c0 1.9-.2 3.5-.6 4.6-.2.6-.5 1.1-1 1.4-.5.3-1 .4-1.5.2-.6-.2-1.1-.6-1.6-1.3-.5-.7-.8-1.5-1-2.3-.5-2-.7-6.1-.7-12.1 0-5.1.1-8.5.4-10.1.2-1.1.5-1.8 1-2.3.5-.5 1.1-.6 1.7-.4.9.3 1.5.9 2 1.9.4.9.8 2.3 1 4 .3 2 .4 6 .4 12.1-.1 1.5-.1 2.9-.1 4.3zM690.6 499c-.2-.2-.6-.3-1.2-.5l-20.9-7.1c-1-.4-1.5-1.1-1.5-2.2v-.5l-2.5-.9v1.7c0 2.3-.1 5.5-.3 9.8-.2 4.2-.4 8.2-.7 12l2.5.8.3-5.5c.1-1.2.2-2.1.6-2.5.4-.5 1.3-.6 2.7-.2l14.6 5c-1.4 3.6-2.9 7.3-4.8 11.3-3.4 7.3-5.4 11.9-6.1 13.8-.9 2.5-1.4 5-1.4 7.5 0 2.1.5 4.1 1.5 6 .9 1.8 2.1 2.9 3.6 3.4 2.4.8 4-.5 4.8-4 .3-1.3.4-3.5.4-6.6-.1-11.4 2.8-24.3 8.7-38.7.3-.5.4-1 .4-1.4-.1-.5-.3-1-.7-1.2zM774.2 125.1c-4.7-5.2-11.4-8-18.8-8-3.7 0-7.5.7-11.4 2l-313.1 109.9v-16.8c17-8.9 28.4-24.8 28.4-42.9 0-27.9-27-50.5-60.2-50.5-33.3 0-60.2 22.6-60.2 50.5 0 17.5 10.6 32.8 26.6 41.9v40.8l-308.6 108.4c-9.8 3.5-18.3 10.6-24.4 19.3-6.1 8.7-10 19.1-10 29.5v99.5c0 8.3 2.6 15.5 7.3 20.7 4.7 5.1 11.4 8 18.7 8h.1c3.7 0 7.5-.7 11.4-2l305.6-107.3v166.3h65.5v-105.8l254.9 82.6c2.5.8 5 1.2 7.3 1.2 4.6 0 8.8-1.5 11.8-4.5 3-2.9 4.7-7.1 4.7-11.9v-56.5c0-6-2.6-12-6.5-17-4-5-9.4-9-15.6-11l-232-75.2 291.3-102.3c9.8-3.5 18.3-10.6 24.4-19.3 6.1-8.7 10-19.1 10-29.5v-99.5c0-8.3-2.5-15.5-7.2-20.6zm-1.8 120.1c0 8.1-3.1 16.9-8.4 24.3-5.2 7.4-12.5 13.3-20.1 16l-687 241.3c-3 1.1-5.8 1.5-8.4 1.5-5.2 0-9.2-1.8-12.2-5.1-3-3.2-4.9-8.1-4.9-14.6v-99.5c0-8.1 3.1-16.9 8.4-24.3 5.2-7.4 12.5-13.3 20.1-16l687-241.3c3-1.1 5.8-1.5 8.4-1.5 5.2 0 9.2 1.8 12.2 5.1 3 3.2 4.9 8.1 4.9 14.6v99.5zm-68.2 254.2v56.6c0 3.6-1.2 6.2-3.1 8-1.9 1.8-4.6 2.9-8 2.9-1.7 0-3.6-.3-5.6-.9l-256.5-83.1v-78l16-5.6 238.8 77.4c5 1.6 9.7 5 13 9.2 3.4 4.1 5.4 9.1 5.4 13.5zM103.8 386.6l2.8-1c5.2-1.8 8.6.1 10.4 5.5.6 1.5.9 6.1.9 13.7v35.1l-36.9-51.3-30.1 10.4v6.1l2.1-.7c4.6-1.6 7.6-.8 9.1 2.4.6 1 .8 3.5.8 7.4v57.4c0 3.1-.1 5.5-.2 7.2-.2 2.6-.8 4.9-1.8 7.1-.9 1.8-2.3 3.5-4 5.2-1.7 1.6-3.5 2.7-5.1 3.3l-2.5.9v6.1l35-12.3v-6.1l-2.4.9c-2.4.8-4.5.9-6.5.3-2-.6-3.3-1.9-4.1-3.7-.7-1.4-1.1-5.2-1.1-11.3v-46.3l42.2 57.9 12.8-4.5v-74.1c0-5.3.2-9.4.6-12.3.2-1.7.8-3.7 1.8-6 2-4.5 4.5-7.3 7.7-8.4l2.2-.8v-6.1l-33.7 11.8v6.2zM210.5 422.2c-4.3 8.9-9.4 15.5-15.5 19.8-3.4 2.5-7.8 4.7-13.1 6.5-2.1.8-3.7 1-4.7.7-1-.3-1.5-1.6-1.5-4v-36.7c11.7-4.7 17.7 1.3 18 17.8l5.7-2v-53.3l-5.7 2c0 3.5-.2 6.1-.5 7.8-.6 3.4-1.7 6.6-3.5 9.8-3.4 5.7-8.1 9.6-14 11.6v-34.8c0-2.2.3-3.9.8-4.9.7-1.5 2.4-2.6 5.1-3.6 4.9-1.7 8.8-2.8 11.6-3 4.7-.6 8.5.5 11.5 3.1 4.6 4 7.6 10.4 9.1 19.3l6-2.1-.8-31.7c-.2-3.1-1.8-4.1-4.7-3l-74 26v6.1l2.1-.7c4.6-1.6 7.6-.8 9.1 2.4.6 1 .8 3.5.8 7.4v63c0 4.8-.8 8.5-2.3 11.1-1.5 2.6-4.1 4.5-7.6 5.7l-2.1.7v6.1l75.7-26.6c2-.7 3.4-1.8 4.3-3.2.8-1.2 1.2-2.9 1.2-5.1v-33.4l-5.5 1.9c-1.3 8.1-3.1 14.4-5.5 19.3zM283.2 323.6l1.8-.6c2-.7 3.5-.6 4.5.3 1 .9 1.5 2.2 1.5 3.9 0 2.7-1.6 6.9-4.7 12.5l-8.2 14.8-8.4-12.8c-1.8-2.8-2.7-5.3-2.7-7.5 0-1.4.5-2.7 1.5-4 1-1.3 2.2-2.1 3.6-2.7l3.3-1.2v-6.1l-47.8 16.8v6.1c1.9-.6 3.2-1 4-1.1 3.1-.5 5.8.3 8.2 2.3 1 1 3.3 4.1 6.8 9.3l17.2 26-13.6 24.9c-6.2 11.3-12.6 19.6-19 24.9-2 1.7-4.3 3.2-6.9 4.4v6.1l38-13.3v-6.1l-2.6.9c-2 .7-3.7.5-5-.7-1.1-.9-1.6-2.2-1.6-3.9 0-3 1.9-8.1 5.8-15.3l8.9-16.3 11.3 17.7c1.6 2.5 2.4 4.5 2.4 6 0 3.2-2.6 5.7-7.7 7.5l-3.1 1.1v6.1l48.4-17v-6.1l-1.7.6c-3.1 1.1-5.7.9-7.7-.6-2.2-1.6-4.6-4.4-7.3-8.6l-20.2-31.5 14.1-24.3 3.6-6.5 2-3.4c2.2-3.6 4.4-6.5 6.6-8.6 3.1-3.1 6.1-5.1 8.9-6l1.8-.6v-6.1l-36 12.6v6.1zM374.3 291.6c5.8-2 10.3-.2 13.7 5.6 1.2 2.1 2.1 4.4 2.8 7.1.7 2.7 1.4 7.2 2.3 13.7l5.7-2v-35.6c-.1-2.3-1.3-3-3.7-2.2l-71.9 25.2c-1.1.4-1.9 1-2.4 1.8-.5.7-.8 2-.8 3.7v34.7l5.8-2c.4-4.5.9-8.2 1.3-11.1 1.5-9.5 4.3-16.7 8.2-21.6 2.7-3.3 6.2-5.7 10.7-7.3.4-.1.9-.3 1.6-.6v76.2c0 4.8-.8 8.5-2.3 11.1-1.5 2.6-4.1 4.5-7.6 5.7l-2.1.7v6.1l47.4-16.7v-6.1l-2.1.7c-4.6 1.6-7.6.8-9.1-2.4-.6-1-.8-3.5-.8-7.5v-76.2c1.4-.4 2.5-.7 3.3-1zM476.1 284.1c-8.7-1.6-14.1-2.8-16.2-3.7-3.1-1.4-4.7-3.8-4.7-7.1 0-3 1-6 3.1-9.2 2.3-3.5 5.4-5.9 9.5-7.4 6.7-2.4 12.6-1.3 17.7 3.2 2.2 2 4 4.2 5.2 6.7 1.2 2.5 2.3 6 3.4 10.6l5.9-2.1v-36.9l-5.9 2.1-2.5 7.7c-.6 1.8-1.3 2.8-2.2 3.2-.8.3-1.7.2-2.8-.1-3.3-1.1-5.5-1.8-6.6-1.9-3.9-.6-7.7-.2-11.6 1.2-6.3 2.2-11.8 6.2-16.5 11.9-5.9 7.3-8.9 15.7-8.9 25.2 0 10.7 3.5 18.2 10.5 22.3 3.2 1.9 8.8 3.4 16.8 4.6 7.9 1.2 13.1 2.5 15.7 4.1 3.5 2.1 5.3 5.3 5.3 9.6 0 3.7-1.2 7.2-3.7 10.5-2.6 3.5-6.3 6.1-11 7.7-8.7 3.1-16 .7-21.8-7.1-3.5-4.7-6.2-11.8-8-21.1l-5.7 2v45.2l6-2.1 2.7-8.6c.6-1.8 1.3-2.9 2.3-3.3.6-.2 1.4-.1 2.5.5 3.1 1.4 5.8 2.3 8 2.7 4.5.9 9.2.5 14-1.2 6.1-2.2 11.7-6 16.5-11.4 7.4-8.2 11.1-17.9 11.1-29.1 0-8.5-2.3-15.1-6.8-19.9-3.5-4-10.7-7-21.3-8.8zM583.9 211.8l-71.9 25.3c-1.1.4-1.9 1-2.4 1.8-.5.7-.8 2-.8 3.7v34.7l5.8-2c.4-4.5.9-8.2 1.3-11.1 1.5-9.5 4.3-16.7 8.2-21.6 2.7-3.3 6.2-5.7 10.7-7.3.4-.1.9-.3 1.6-.6v76.2c0 4.8-.8 8.5-2.3 11.1-1.5 2.6-4.1 4.5-7.6 5.7l-2.1.7v6.1l47.4-16.7v-6.1l-2.1.7c-4.6 1.6-7.6.8-9.1-2.4-.6-1-.8-3.5-.8-7.5v-76.2c1.3-.5 2.3-.9 3.1-1.2 5.8-2 10.3-.2 13.7 5.6 1.2 2.1 2.1 4.4 2.8 7.1.6 2.7 1.4 7.2 2.3 13.7l5.7-2v-35.5c.1-2.3-1.2-3-3.5-2.2zM661.6 263.8c-4.3 8.9-9.4 15.5-15.5 19.8-3.4 2.5-7.8 4.7-13.1 6.5-2.1.8-3.7 1-4.7.7-1-.3-1.5-1.6-1.5-4v-36.7c11.7-4.7 17.7 1.3 18 17.8l5.7-2v-53.3l-5.7 2c0 3.5-.2 6.1-.5 7.8-.6 3.4-1.7 6.6-3.5 9.8-3.4 5.7-8.1 9.5-14 11.6v-34.8c0-2.2.3-3.9.8-4.9.7-1.5 2.4-2.6 5.1-3.6 4.9-1.7 8.8-2.7 11.6-3 4.7-.6 8.5.5 11.5 3.1 4.6 4 7.6 10.4 9.1 19.3l6-2.1-.8-31.7c-.2-3.1-1.8-4.1-4.7-3l-74 26v6.1l2.1-.7c4.6-1.6 7.6-.8 9.1 2.4.6 1 .8 3.5.8 7.4v63c0 4.8-.8 8.5-2.3 11.1-1.5 2.6-4.1 4.5-7.6 5.7l-2.1.7v6.1l75.7-26.6c2-.7 3.4-1.8 4.3-3.2.8-1.2 1.2-2.9 1.2-5.1v-33.4l-5.5 1.9c-1.3 8-3.1 14.4-5.5 19.3zM746.3 159.8c-5.7-1.4-13.8-.2-24.3 3.5l-43.7 15.4v6.1l2.1-.7c4.6-1.6 7.6-.8 9.1 2.4.6 1 .8 3.5.8 7.4v63c0 4.8-.8 8.5-2.3 11.1-1.5 2.6-4.1 4.5-7.6 5.7l-2.1.7v6.1l47.4-16.7v-6.1l-2.1.7c-4.6 1.6-7.6.8-9.1-2.4-.6-1-.8-3.5-.8-7.5v-25c8-3 13.1-5 15.5-6 8.4-3.6 15.4-8.9 21-15.9 5.7-7.1 8.6-14.8 8.6-22.9 0-5.4-1.3-9.9-3.9-13.3-2.2-2.8-5-4.7-8.6-5.6zm-15.1 41.2c-.9 3.5-2.2 6.5-4.2 8.8-2 2.5-5.3 4.6-10 6.2-.7.3-1.9.7-3.3 1.2v-38.8c0-2.7.2-4.4.7-5.1.7-1.1 1.9-1.9 3.6-2.5 9.7-3.4 14.5 2.2 14.5 16.8 0 5.4-.4 9.9-1.3 13.4zM195.2 609.4h-29.4v3.3c2.9.1 5.1.3 6.5.7 2.9.7 4.3 2 4.3 3.9 0 1.3-.4 2.7-1.3 4.2l-12.9 24.2-13.3-26.8c-.6-1.3-.9-2.3-.9-3 0-2.1 2.3-3.1 6.8-3.1h2.3v-3.3h-39.3v3.3h2.3c2 0 3.6.3 4.7.9 1 .5 1.9 1.6 2.9 3.4l2.8 5.6-12.7 23.1-13.3-27.3c-.7-1.4-1-2.3-1-2.9 0-1.9 1.8-2.8 5.3-2.8h2.5v-3.3h-36.8v3.3h1.4c1.6 0 3.1.6 4.5 1.7 1 .8 2.2 2.5 3.6 5.2l22.8 45h7.2l19.6-35.4 17.4 35.4h7.1l23.3-42.6c2.5-4.3 5.1-7.1 7.7-8.2 1.6-.7 3.5-1.1 6-1h1.8c4.2 0 6.9 1 8.2 3 .5.6.8 2 .8 4.1v33.6c0 2.6-.7 4.4-2 5.5-1.4 1.1-3.7 1.6-6.9 1.6h-1.9v3.3h42.7v-3.3h-2c-4.2 0-6.9-1-8.2-3-.5-.7-.8-2-.8-4.1v-33.6c0-2.5.7-4.4 2-5.5 1.4-1.1 3.7-1.6 6.9-1.6h1.9v-3.3h-42.6v-.2zM294.9 636.5c-3.4-2.8-9.9-5.8-19.4-8.7-7.9-2.5-12.8-4.1-14.6-5-2.8-1.3-4.2-2.9-4.2-4.7 0-1.6.9-3 2.8-4.3 2.1-1.4 4.9-2.2 8.6-2.2 6.1 0 11.4 1.7 15.9 5 2 1.5 3.6 3 4.7 4.5s2.1 3.6 3.1 6.3h5.3v-19.7h-5.3l-2.3 3.7c-.5.9-1.2 1.3-2 1.3-.7 0-1.6-.2-2.5-.6-3-1.2-4.9-2-5.9-2.3-3.5-1-7-1.6-10.4-1.6-5.7 0-10.7 1.1-14.8 3.3-5.3 2.8-8 6.7-8 11.8 0 5.7 3.1 10.4 9.4 13.9 2.9 1.6 7.9 3.5 15.2 5.6 7.1 2.1 11.8 3.8 14.2 5.1 3.2 1.8 4.8 3.8 4.8 6.1 0 2-1.1 3.6-3.3 4.9-2.3 1.4-5.6 2.1-9.9 2.1-7.9 0-14.4-2.6-19.6-7.8-3.2-3.2-5.6-7.4-7.2-12.7h-5.5v24.1h5.4l2.5-4.1c.5-.9 1.2-1.3 2.1-1.3.5 0 1.3.2 2.3.7 2.8 1.3 5.2 2.3 7.2 2.9 4.1 1.3 8.3 2 12.6 2 5.5 0 10.5-1 14.9-3 6.7-3 10-7.5 10-13.5 0-4.5-2.1-8.4-6.1-11.8zM354 657.3c-3.3 2-6.8 3-10.6 3-2.3 0-4.5-.4-6.4-1.3-2.3-1.1-3.9-2.3-4.7-3.8-.9-1.7-1.6-4-2-7-.4-3-.6-7.3-.6-12.8 0-7.8.6-13.6 1.7-17.5 1.1-3.8 4-5.7 8.6-5.7 2.6 0 5 .5 7.4 1.6 2.4 1.1 4.5 2.6 6.2 4.6 1.7 1.8 3 3.7 4 5.5 1 1.9 2.1 4.5 3.3 8h5.2v-24.1h-5.2l-3 4.8c-.3.5-.8.8-1.4.8-.5 0-1.7-.5-3.5-1.4-4.5-2.4-9.6-3.6-15.5-3.6-3.9 0-7.6.6-11.1 1.7-4.7 1.5-8.5 3.6-11.5 6.3-6 5.3-9 12.2-9 20.6 0 4.6.8 8.7 2.5 12.1 1.7 3.4 4.2 6.5 7.7 9.1 6.1 4.5 13.7 6.8 22.7 6.8 4.9 0 9.4-.7 13.4-2.2 5.9-2.2 10.1-5.7 12.7-10.5 1.1-2.2 2-5.6 2.7-10.2h-5.5c-.6 7.1-3.4 12.2-8.1 15.2zM437.7 615.9c-3.3-2.4-7.2-4.3-11.7-5.7-4.5-1.3-9.1-2-13.9-2-10.2 0-18.9 2.3-25.9 6.9-7.9 5.1-11.8 12.4-11.8 21.8 0 10.4 4.9 18.1 14.7 23.2 6.1 3.1 13.4 4.7 21.7 4.7 9.9 0 18.2-2.1 24.8-6.4 8.3-5.4 12.4-12.7 12.4-22.1.1-8.5-3.4-15.3-10.3-20.4zm-14.4 33c-1 5.1-2.5 8.4-4.6 10-2 1.6-4.4 2.4-7.3 2.4-2 0-3.9-.4-5.6-1.2-1.7-.8-2.9-1.9-3.6-3.2-2.6-4.5-3.8-11.3-3.8-20.3 0-4.2.4-8.4 1.1-12.4.9-5 2.5-8.4 4.6-10 2.1-1.6 4.4-2.4 7.2-2.4 2.1 0 3.9.4 5.7 1.2 1.7.8 3 1.9 3.7 3.2 1.2 2 2.1 4.9 2.8 8.6.7 3.7 1 7.7 1 12-.1 4.2-.4 8.2-1.2 12.1zM502.4 612.6h2.5c4.7 0 7.8 1.6 9.4 4.9.5.9.8 3.4.8 7.5v18.7l-33.3-34.3h-27.1v3.3h1.9c4.2 0 6.9 1 8.2 3 .5.6.8 2 .8 4.1v30.7c0 1.6-.1 2.9-.2 3.8-.2 1.3-.7 2.5-1.6 3.4-.8.8-2 1.5-3.6 2s-3.1.8-4.6.8h-2.3v3.3h31.6v-3.3h-2.2c-2.1 0-4.1-.4-5.9-1.1-1.8-.7-3-1.6-3.7-2.8-.6-.9-1-3-1-6.3v-24.7l38.1 38.8h11.5v-39.4c0-2.8.2-5 .6-6.5.2-.9.8-1.8 1.6-2.9 1.8-2 4.1-3.1 7-3h2v-3.3h-30.4v3.3zM588.8 636.5c-3.4-2.8-9.9-5.8-19.4-8.7-7.9-2.5-12.8-4.1-14.6-5-2.8-1.3-4.2-2.9-4.2-4.7 0-1.6.9-3 2.8-4.3 2.1-1.4 4.9-2.2 8.6-2.2 6.1 0 11.4 1.7 15.9 5 2 1.5 3.6 3 4.7 4.5s2.1 3.6 3.1 6.3h5.3v-19.7h-5.3l-2.3 3.7c-.5.9-1.2 1.3-2 1.3-.7 0-1.6-.2-2.5-.6-3-1.2-5-2-5.9-2.3-3.5-1-7-1.6-10.4-1.6-5.7 0-10.7 1.1-14.8 3.3-5.3 2.8-8 6.7-8 11.8 0 5.7 3.1 10.4 9.4 13.9 2.9 1.6 7.9 3.5 15.2 5.6 7.1 2.1 11.8 3.8 14.2 5.1 3.2 1.8 4.8 3.8 4.8 6.1 0 2-1.1 3.6-3.3 4.9-2.4 1.4-5.6 2.1-9.9 2.1-7.9 0-14.4-2.6-19.6-7.8-3.2-3.2-5.6-7.4-7.2-12.7h-5.2v24.1h5.4l2.5-4.1c.5-.9 1.2-1.3 2.1-1.3.5 0 1.3.2 2.3.7 2.8 1.3 5.2 2.3 7.2 2.9 4.1 1.3 8.3 2 12.6 2 5.5 0 10.5-1 14.9-3 6.7-3 10-7.5 10-13.5-.3-4.5-2.4-8.4-6.4-11.8zM600 612.6h1.9c4.2 0 6.9 1 8.2 3 .5.6.8 2 .8 4.1v33.6c0 2.6-.7 4.4-2 5.5-1.4 1.1-3.7 1.6-6.9 1.6h-2v3.3h42.7v-3.3h-1.9c-4.2 0-6.9-1-8.2-3-.5-.7-.8-2-.8-4.1v-33.6c0-2.5.7-4.4 2-5.5 1.4-1.1 3.7-1.6 6.9-1.6h1.9v-3.3h-42.6v3.3zM695.5 612.6h2.5c4.7 0 7.8 1.6 9.4 4.9.5.9.8 3.4.8 7.5v18.7l-33.3-34.3h-27.1v3.3h1.9c4.2 0 6.9 1 8.2 3 .5.6.8 2 .8 4.1v30.7c0 1.6-.1 2.9-.2 3.8-.2 1.3-.7 2.5-1.6 3.4-.8.8-2 1.5-3.6 2s-3.1.8-4.6.8h-2.3v3.3h31.6v-3.3h-2.2c-2.1 0-4.1-.4-5.9-1.1-1.8-.7-3-1.6-3.7-2.8-.6-.9-1-3-1-6.3v-24.7l38.1 38.8h11.5v-39.4c0-2.8.2-5 .6-6.5.2-.9.8-1.8 1.6-2.9 1.8-2 4.1-3.1 7-3h2v-3.3h-30.4v3.3zM207.2 121.5c-2.2 1.6-4.5 3.3-6.7 5-4.9-2.3-9.8-4.6-14.8-6.8l-2.6 2.1 9.2 11.2-5.3 4.4-25.6-30c3.3-2.8 6.6-5.5 10-8.2 1.4-1.1 2.6-1.9 3.8-2.5 1.2-.6 2.4-.8 3.8-.8s2.8.4 4.2 1.1c1.4.7 2.7 2 3.9 3.6 1.7 2.3 2.8 4.5 3.1 6.6.3 2 .2 4.1-.5 6.1 6 2.7 11.8 5.4 17.5 8.2zm-25.4-15.2c-.6-.8-1.2-1.4-1.9-1.7-.7-.4-1.4-.5-2.2-.4-.6.1-1.1.3-1.7.7-.6.4-1.2.8-1.9 1.4l-2.1 1.7 6.7 8.2c.6-.5 1.2-1 1.7-1.4.9-.7 1.6-1.4 2.1-2 .5-.6.8-1.3.9-2.1.1-.7 0-1.5-.2-2.1-.2-.6-.7-1.4-1.4-2.3zM229.5 106.4c-5.4 3.3-10.7 6.8-15.9 10.4-7.5-10.8-15-21.6-22.6-32.4 5.8-4.1 11.7-7.9 17.7-11.6l4 6.5c-3.8 2.3-7.5 4.8-11.2 7.2l3.8 5.7c3.4-2.3 6.8-4.5 10.2-6.6l4 6.5c-3.4 2.1-6.7 4.3-10 6.5l5.4 8.1c3.5-2.3 7-4.6 10.5-6.8 1.4 2.2 2.7 4.4 4.1 6.5zM251.2 80.1c1.7 3.5 2.1 6.8 1.3 9.9-.8 3.2-2.9 5.6-6.1 7.3-1.9 1-3.7 1.7-5.3 2-1.7.3-3.3.4-5 .4l-4.8-8.2c.2-.1.4-.3.7-.4 2.1.7 4.1 1.1 6.1 1 2-.1 3.7-.5 5.1-1.3.4-.2.8-.5 1.4-.9.5-.4.9-.8 1.2-1.2.3-.5.5-1.1.6-1.7.1-.6-.1-1.3-.5-2.1s-1-1.3-1.7-1.6c-.7-.3-1.6-.4-2.6-.2-1.1.2-2.2.4-3.3.7-1.1.3-2.3.4-3.4.5-2.5.2-4.7-.3-6.5-1.4-1.8-1.1-3.4-2.8-4.8-5.2-1.8-3.2-2.3-6.4-1.4-9.6.9-3.2 3.1-5.8 6.5-7.6 1.7-.9 3.5-1.6 5.3-2 1.9-.4 3.6-.6 5.1-.5l4.1 8.1-.7.3c-1.6-.6-3.3-.9-5.2-.9-1.9 0-3.6.4-5.1 1.2-.5.3-1 .6-1.5 1s-.9.9-1.2 1.4c-.3.5-.5 1-.5 1.7-.1.6.1 1.3.4 1.9.5.9 1.1 1.5 1.9 1.7.8.2 1.9.1 3.5-.2l3-.6c1-.2 2-.3 3.2-.4 2.3-.1 4.3.4 6 1.5 1.6 1.2 3 3 4.2 5.4zM277.9 81.6c-4.6 1.9-9.2 4-13.8 6.1l-3-6.3 3.9-1.8-10.5-23.2-4.2 1.9-3-6.3c5.1-2.4 10.2-4.6 15.4-6.8l2.7 6.5-4.2 1.8 10.1 23.4c1.3-.6 2.6-1.1 4-1.7.8 2.1 1.7 4.2 2.6 6.4zM304.5 51.2c1.1 3.5 1.5 6.8 1.3 9.9-.2 3.1-.9 5.6-2 7.6-.8 1.5-1.9 2.7-3.2 3.6-1.3.9-2.9 1.7-4.8 2.4-2.8 1-5.7 2-8.5 3.1l-14.1-36.9 9.7-3.6c2.2-.8 4.2-1.2 5.9-1.2 1.8 0 3.3.3 4.7.9 2.4 1 4.5 2.7 6.4 5 2 2.5 3.5 5.5 4.6 9.2zm-6.9 2.1c-.8-2.5-1.8-4.5-3-6s-2.7-2.6-4.4-3.1c-.9-.3-1.7-.3-2.5-.3-.8.1-1.9.4-3.4.9l-1.7.6 8.4 23.2 1.6-.6c1.5-.5 2.6-1 3.2-1.5.6-.5 1.2-1.1 1.7-1.8.8-1.4 1.2-3 1.2-4.9.1-1.9-.3-4-1.1-6.5zM337.4 63c-6 1.3-11.9 2.7-17.8 4.3l-10.3-38.1c6.6-1.8 13.2-3.4 19.9-4.8l1.6 7.5c-4.2.9-8.4 1.9-12.6 2.9l1.7 6.6c3.8-1 7.6-1.9 11.5-2.7l1.6 7.5c-3.8.8-7.5 1.7-11.2 2.6l2.4 9.5c3.9-1 7.9-1.9 11.8-2.7.3 2.4.9 4.9 1.4 7.4zM370.1 57.6c-2.1.2-4.2.5-6.2.8-4.7-8.5-9.8-16.8-15.1-25.1 1.5 8.9 3 17.8 4.4 26.7l-5.9 1c-2.4-12.9-4.8-25.9-7.1-38.8l8.6-1.5c4.6 6.9 9 13.9 13.2 20.9l-3-22.4c2.2-.3 4.4-.6 6.6-.8 1.5 13.1 3 26.2 4.5 39.2zM400.2 23.7l-8.6.3 1.5 31.8c-2.2.1-4.3.2-6.5.4-.7-10.6-1.4-21.2-2.1-31.7-2.9.2-5.7.4-8.6.7l-.7-7.6c8.3-.7 16.5-1.2 24.8-1.4 0 2.4.1 5 .2 7.5zM423.2 55.7c-4.9-.2-9.9-.3-14.8-.3v-7h4.2c.1-8.5.2-17 .2-25.5h-4.5v-7c5.5 0 11 .1 16.5.3l-.3 7-4.5-.2c-.2 8.5-.5 17-.7 25.4l4.2.1c-.1 2.5-.2 4.8-.3 7.2zM456.4 58.6l-6.7-.9c-.3-2.7-.6-5.4-.8-8.1-3.2-.4-6.3-.7-9.5-.9l-2.4 7.8c-2.2-.2-4.4-.3-6.5-.5 3.9-12.9 8.2-25.8 12.8-38.6 2.8.2 5.6.5 8.3.8 1.9 13.5 3.5 27 4.8 40.4zm-8.3-16.3l-1.8-14.4c-1.6 4.6-3.1 9.2-4.6 13.8 2 .1 4.2.4 6.4.6zM482.6 63.3c-6-1.3-11.9-2.4-17.9-3.4 2.1-13 4.2-26 6.4-38.9l7.2 1.2-5.7 31.3c3.9.7 7.9 1.5 11.8 2.4-.7 2.4-1.3 4.9-1.8 7.4zM533.2 78.6c-2.5-1-5.1-1.9-7.7-2.9l-1.1-3.9c-1.6.9-3.1 1.5-4.6 1.7-1.5.2-3 .1-4.5-.4-3-1-5-2.8-6.1-5.5-1.1-2.7-1.1-5.8-.1-9.2.4-1.4.9-2.7 1.5-3.6.6-1 1.3-1.8 2-2.5s1.4-1.2 2.2-1.7c.8-.4 1.5-.7 2.2-1l-.9-2.1c-.3-.7-.5-1.5-.6-2.2-.1-.7-.2-1.5-.1-2.4.1-.8.2-1.8.5-2.8.4-1.2.9-2.2 1.5-3.2.7-.9 1.5-1.7 2.5-2.3 1-.6 2.2-1 3.7-1.2 1.4-.1 3 .1 4.8.7 1.5.5 2.7 1.1 3.7 1.9 1 .8 1.8 1.7 2.3 2.7.5 1 .7 2 .8 3.1 0 1.1-.2 2.3-.6 3.4-.3.8-.7 1.6-1.1 2.4-.5.9-1.1 1.6-1.8 2.3-.8.7-1.6 1.3-2.6 1.8s-2.2.8-3.7 1c1 2.8 2 5.7 2.9 8.5.9-2.7 1.9-5.4 2.8-8l6.4 2.3c-.3.9-.7 1.8-1 2.8-.7 2-1.7 3.7-2.8 5.4-1.1 1.6-2.3 2.9-3.5 3.8 1.1 3.5 2.1 7.1 3.1 10.6.1.1 0 .3-.1.5zm-10.2-12.1c-1.3-4-2.6-7.9-4-11.9-.3.3-.8.8-1.4 1.6-.6.8-1 1.7-1.4 2.8-.4 1.1-.5 2.1-.5 3.1 0 .9.2 1.7.4 2.3.3.7.6 1.2 1.1 1.7.5.4.9.8 1.5.9.8.2 1.5.4 2.1.3.7-.1 1.4-.3 2.2-.8zm4.7-22.4c.3-.9.4-1.6.4-2.2 0-.6-.1-1-.3-1.4-.2-.4-.4-.6-.7-.8-.3-.2-.5-.3-.7-.3-.2-.1-.4-.1-.7-.1-.3 0-.6.1-1 .3-.3.2-.7.4-1 .8-.3.4-.6 1-.9 1.7-.3 1-.3 2-.1 3.1.3 1.1.7 2.3 1.3 3.6.9-.5 1.7-1.2 2.3-2 .6-.8 1.1-1.7 1.4-2.7zM586.9 82.2c-1.8 3.2-3.9 5.8-6.3 7.8s-4.7 3.3-7 3.8c-1.7.4-3.3.5-4.8.2-1.6-.3-3.2-.9-5.1-1.8-2.7-1.4-5.4-2.7-8.2-4 5.6-11.9 11.2-23.8 16.9-35.7 3.1 1.5 6.3 3 9.4 4.6 2.1 1.1 3.8 2.2 5 3.5 1.3 1.3 2.2 2.6 2.7 4 1 2.4 1.2 5.1.8 8.1-.3 3.1-1.5 6.2-3.4 9.5zm-6.3-3.6c1.2-2.3 2-4.4 2.3-6.3.3-1.9 0-3.7-.8-5.3-.4-.8-.9-1.5-1.5-2s-1.6-1.1-3-1.8c-.5-.3-1.1-.6-1.6-.8l-11 22.1 1.5.8c1.4.7 2.6 1.2 3.3 1.3.8.2 1.6.1 2.5 0 1.6-.4 3.1-1.2 4.4-2.5 1.3-1.4 2.6-3.2 3.9-5.5zM606.2 117.7c-1.9-1.3-3.8-2.7-5.8-4 1-2.5 1.9-5.1 2.9-7.7l-8.3-5.4-5.8 5.8c-1.9-1.2-3.9-2.4-5.8-3.5 9.5-9.7 19.2-19.1 29.2-28.4 2.4 1.5 4.9 3.1 7.3 4.7-4.2 13-8.8 25.8-13.7 38.5zm-.3-18.6c1.7-4.6 3.3-9.1 4.8-13.7-3.5 3.3-7 6.7-10.5 10.1 1.9 1.1 3.8 2.3 5.7 3.6zM657.2 107.4c-8 3.7-15.9 7.7-23.6 11.8l-9.6 11.9-5.4-4.3 9-11.7c2.3-8.6 4.4-17.4 6.2-26.2 2.3 1.7 4.7 3.4 7 5.2-1.4 5.3-2.8 10.6-4.4 15.9 4.7-2.8 9.5-5.4 14.3-8.1 2.2 1.9 4.4 3.7 6.5 5.5zM328.7 104.9c1 3.7 1 7-.1 9.9-1.1 2.8-3.1 4.7-6 5.6-1.7.5-3.3.7-4.7.6-1.4-.1-2.9-.4-4.3-.9-1-3-2.1-6-3.1-8.9l.6-.2c1.7 1.2 3.4 2 5 2.4 1.7.4 3.2.4 4.4 0 .3-.1.8-.3 1.3-.6s.9-.6 1.2-.9c.3-.4.6-.9.7-1.5.1-.5.1-1.3-.2-2.2-.2-.8-.7-1.5-1.2-2-.6-.5-1.3-.8-2.2-.8-.9-.1-1.9-.1-2.9-.1s-2-.1-2.9-.3c-2.2-.4-4-1.4-5.4-2.8-1.4-1.5-2.6-3.5-3.5-6.1-1.2-3.5-1.2-6.6 0-9.5 1.2-2.8 3.4-4.8 6.5-5.7 1.6-.5 3.2-.7 4.8-.7 1.7 0 3.1.3 4.5.7.8 2.9 1.6 5.8 2.4 8.8l-.6.2c-1.3-1-2.7-1.7-4.3-2.1-1.6-.4-3.1-.4-4.5 0-.5.2-1 .4-1.4.6-.5.3-.9.6-1.2 1.1-.3.4-.5.9-.7 1.5-.1.6-.1 1.2.1 1.9.3 1 .8 1.7 1.4 2.1.6.4 1.6.6 3 .6.9 0 1.8.1 2.6.1s1.8.2 2.8.4c2 .4 3.6 1.4 4.9 2.8 1.3 1.3 2.3 3.4 3 6zM354.8 111.5c-5.1 1-10.2 2.1-15.3 3.3l-9.4-38.3c5.7-1.4 11.5-2.7 17.3-3.8.5 2.5 1 5 1.4 7.5-3.7.7-7.3 1.5-10.9 2.3l1.5 6.6 9.9-2.1c.5 2.5 1 5 1.4 7.5-3.2.6-6.5 1.3-9.7 2 .7 3.2 1.4 6.3 2.2 9.5 3.4-.8 6.7-1.5 10.1-2.1.6 2.6 1 5.1 1.5 7.6zM383.9 107.5c-2.2.2-4.5.4-6.7.7-2.5-4.6-5-9.1-7.7-13.6-.9.1-1.8.2-2.7.4l2 14.3c-1.8.3-3.6.5-5.5.8-2.1-13-4.2-26-6.2-38.9 3.5-.6 7-1.1 10.5-1.5 1.4-.2 2.7-.2 3.7-.1 1.1.1 2.1.6 3.1 1.4 1 .8 1.8 1.8 2.5 3.2.7 1.3 1.1 3.1 1.3 5.2.3 2.9.1 5.3-.5 7.2-.6 1.9-1.6 3.5-2.9 4.9 3.2 5.2 6.2 10.6 9.1 16zm-11.8-26.3c-.1-1-.3-1.8-.7-2.5-.3-.7-.8-1.2-1.5-1.5-.4-.2-1-.3-1.5-.3-.6 0-1.2.1-1.9.2l-2.2.3 1.5 10.5c.6-.1 1.2-.2 1.8-.2.9-.1 1.7-.3 2.3-.5.6-.2 1.1-.7 1.5-1.3.3-.6.6-1.2.7-1.9.1-.8.1-1.7 0-2.8zM409.8 67c-3 13.1-5.6 26.3-7.9 39.5l-6.2.2c-3.2-13-6.8-26-10.7-38.9 2.2-.2 4.4-.3 6.6-.4 2.5 9.1 4.8 18.2 6.9 27.4 1.5-9.3 3.1-18.6 4.9-27.8h6.4zM428.5 107c-4.2-.3-8.4-.5-12.6-.6l.2-7 3.6.1c.3-8.5.6-17 .9-25.4l-3.9-.1.2-7c4.8.1 9.5.3 14.3.6l-.5 7c-1.3-.1-2.6-.2-3.9-.2l-1.4 25.4 3.6.2c-.2 2.4-.4 4.7-.5 7zM446.5 109.5c-1.6-.2-3-.8-4.2-1.8-1.2-1-2.3-2.4-3.1-4.2-.8-1.8-1.4-4-1.7-6.6-.3-2.6-.3-5.6 0-8.9.3-3.1.8-5.9 1.6-8.4s1.8-4.6 3.1-6.3c1.2-1.6 2.7-2.8 4.3-3.6 1.7-.8 3.4-1 5.3-.8 1 .1 1.9.3 2.7.6.8.3 1.5.6 2.2 1 .7.4 1.3.9 1.8 1.4l1.4 1.4-1.5 9.4-.7-.1c-.2-.5-.5-1-.9-1.7-.4-.6-.8-1.3-1.3-1.9-.5-.6-1.1-1.2-1.7-1.7-.6-.5-1.3-.8-2.1-.9-.9-.1-1.7 0-2.5.4s-1.6 1-2.4 2c-.7.9-1.4 2.2-2 3.8-.6 1.6-1 3.6-1.2 5.9-.3 2.5-.3 4.5-.1 6.2.2 1.7.6 3 1 4.1.5 1 1.1 1.8 1.8 2.3.7.5 1.4.8 2.1.9.7.1 1.4 0 2.1-.3.7-.3 1.4-.7 2.1-1.2.6-.4 1.1-.9 1.6-1.4.5-.5.9-1 1.3-1.3l.6.1-1.5 9.3c-.6.4-1.2.7-1.7 1-.5.3-1.1.6-1.7.8-.8.3-1.4.5-2.1.6-.7.1-1.5.1-2.6-.1zM477.4 114.4c-5.1-1.2-10.2-2.3-15.3-3.2 2.4-12.9 4.8-25.9 7.1-38.8 5.8 1.1 11.6 2.3 17.3 3.7l-1.8 7.4c-3.6-.9-7.3-1.7-10.9-2.4-.5 2.2-.9 4.4-1.4 6.7 3.3.7 6.6 1.4 9.9 2.2l-1.8 7.4c-3.2-.8-6.4-1.5-9.7-2.1l-1.9 9.6c3.4.7 6.7 1.4 10.1 2.2-.4 2.4-1 4.9-1.6 7.3zM506.4 109.9c-1.2 3.7-3.1 6.4-5.6 8.1-2.5 1.7-5.2 2.2-8.2 1.3-1.7-.5-3.1-1.2-4.3-2.1-1.1-.9-2.1-1.9-3-3.1l2.4-9.1.6.2c.7 1.9 1.7 3.5 2.8 4.8 1.2 1.3 2.4 2.1 3.7 2.5.3.1.8.2 1.4.2.6.1 1.1 0 1.5-.1.5-.2 1-.4 1.4-.8.4-.4.8-1 1-1.9.3-.8.3-1.6.1-2.3-.2-.7-.7-1.4-1.3-1.9-.7-.6-1.5-1.2-2.3-1.7-.8-.6-1.6-1.2-2.3-1.9-1.6-1.6-2.5-3.3-2.8-5.3-.3-2-.2-4.3.5-7 .9-3.5 2.7-6.2 5.3-7.9 2.6-1.7 5.5-2.1 8.6-1.1 1.6.5 3 1.2 4.4 2.2 1.4 1 2.5 2 3.3 3.1l-2.9 8.6-.6-.2c-.5-1.5-1.3-2.9-2.4-4.1-1.1-1.2-2.3-2.1-3.7-2.5-.5-.2-1-.2-1.5-.3-.5 0-1.1 0-1.6.2-.5.1-.9.4-1.4.9-.4.4-.8 1-.9 1.6-.3 1-.3 1.8 0 2.5s1 1.4 2.1 2.2l2.1 1.6c.7.5 1.4 1.1 2.1 1.9 1.4 1.5 2.2 3.2 2.5 5.1.1 1.5-.2 3.7-1 6.3z"/></svg>